<svg xmlns="http://www.w3.org/2000/svg" xmlns:xlink="http://www.w3.org/1999/xlink" width="500" zoomAndPan="magnify" viewBox="0 0 1440 809.999993" height="500" preserveAspectRatio="xMidYMid meet" version="1.0"><path fill="#d7d0f4" d="M 984.167969 1.046875 C 984.308594 1.046875 989.996094 1.96875 990.132812 1.992188 C 990.238281 3.019531 990.332031 4.046875 990.441406 5.074219 C 1002.539062 0.0117188 1002.652344 11.992188 1002.988281 19.21875 C 1145.183594 12.132812 1130.382812 40.144531 1035.855469 55.6875 C 1024.722656 57.5625 1013.519531 58.945312 1002.316406 60.257812 C 1003.101562 64.140625 1005.464844 62.75 1006.117188 78.097656 C 1007.007812 77.585938 1007.859375 76.859375 1008.929688 76.765625 C 1010.007812 77.46875 1009.828125 77.988281 1005.25 90.019531 C 1005.265625 94.605469 1005.644531 99.199219 1005.796875 103.785156 C 1005.058594 103.996094 1004.332031 104.203125 1003.605469 104.417969 C 1004.855469 140.433594 1006.109375 176.449219 1007.363281 212.46875 C 1019.664062 212.886719 1025.441406 210.925781 1025.574219 220.628906 C 1034.007812 219.910156 1042.46875 219.710938 1050.921875 219.4375 C 1060.726562 219.089844 1070.542969 218.949219 1080.351562 218.730469 C 1080.351562 217.273438 1080.351562 215.816406 1080.351562 214.363281 C 1081.183594 214.042969 1082.019531 213.734375 1082.855469 213.421875 C 1082.957031 212.582031 1083.0625 211.75 1083.171875 210.917969 C 1082.648438 210.496094 1082.125 210.078125 1081.609375 209.664062 C 1081.910156 209.242188 1082.226562 208.824219 1082.542969 208.40625 C 1082.226562 207.78125 1081.917969 207.15625 1081.609375 206.53125 C 1082.003906 206.222656 1082.402344 205.921875 1082.816406 205.621094 C 1082.046875 204.6875 1081.667969 203.546875 1081.492188 202.367188 C 1079.984375 202.472656 1078.578125 203.046875 1077.242188 203.707031 C 1075.8125 208.75 1070.085938 212.226562 1071.308594 203.695312 C 1071.957031 199.75 1074.601562 192.765625 1075.199219 192.011719 C 1075.800781 191.445312 1076.914062 191.105469 1077.5625 191.800781 C 1079.527344 193.925781 1076.902344 198.265625 1081.929688 197.546875 C 1082.492188 192.515625 1081.628906 192.289062 1085.679688 192.054688 C 1088.289062 121.183594 1090.042969 120.871094 1089.121094 192.367188 C 1090.554688 192.535156 1091.9375 192.976562 1093.210938 193.664062 C 1092.683594 193.980469 1092.167969 194.296875 1091.65625 194.617188 C 1093.890625 198.113281 1091.25 204.082031 1092.144531 207.144531 C 1091.003906 207.574219 1089.671875 207.996094 1089.246094 209.277344 C 1090.292969 209.617188 1091.351562 209.914062 1092.40625 210.25 C 1091.929688 210.484375 1091.460938 210.71875 1091.007812 210.964844 C 1090.890625 211.777344 1090.792969 212.59375 1090.691406 213.414062 C 1091.417969 214.046875 1092.152344 214.675781 1092.886719 215.308594 C 1092.777344 216.660156 1092.671875 218.007812 1092.566406 219.359375 C 1205.328125 223.894531 1213.3125 253.648438 1099.777344 251.941406 C 1099.769531 253.824219 1099.777344 255.707031 1099.773438 257.589844 C 1096.625 261.003906 1098.113281 260.019531 1095.496094 260.765625 C 1094.617188 261.878906 1093.277344 262.363281 1091.933594 262.632812 C 1091.378906 265.828125 1091.316406 269.082031 1091.003906 272.304688 C 1090.371094 272.511719 1089.746094 272.722656 1089.128906 272.941406 C 1088.074219 314.472656 1087.042969 356.003906 1085.988281 397.535156 C 1086.90625 397.738281 1088.1875 397.648438 1088.714844 398.59375 C 1089.015625 400.222656 1088.964844 401.898438 1089.128906 403.542969 C 1091.519531 403.933594 1094.179688 404.019531 1096.136719 405.644531 C 1095.824219 408.902344 1095.863281 412.1875 1095.699219 415.457031 C 1093.507812 415.871094 1091.316406 416.289062 1089.128906 416.710938 C 1089.152344 420.277344 1089.195312 423.921875 1088.199219 427.386719 C 1087.933594 428.382812 1087.347656 429.25 1086.640625 429.984375 C 1085.957031 457.710938 1085.382812 485.445312 1084.738281 513.175781 C 1091.644531 514.210938 1093.207031 515.226562 1092.703125 518.503906 C 1094.671875 520.023438 1112.917969 573.550781 1113.539062 575.390625 C 1115 576.023438 1116.554688 576.066406 1114.539062 580.832031 C 1114.800781 581.335938 1132.691406 622.917969 1134.875 639.066406 C 1139.128906 640.433594 1137.9375 640.433594 1139.835938 646.785156 C 1139.523438 647.046875 1139.222656 647.320312 1138.960938 647.628906 C 1139.054688 648.042969 1139.214844 648.4375 1139.382812 648.851562 C 1139.242188 649.003906 1138.960938 649.316406 1138.820312 649.46875 C 1139.089844 649.949219 1139.371094 650.4375 1139.660156 650.929688 C 1139.230469 652.035156 1140.066406 652.878906 1140.800781 653.574219 C 1140.980469 655.007812 1141.554688 656.578125 1140.828125 657.945312 C 1137.578125 663.363281 1120.589844 661.609375 1126.382812 654.355469 C 1126.515625 653.679688 1125.917969 653.179688 1125.628906 652.648438 C 1126.152344 652.132812 1126.277344 651.464844 1125.984375 650.800781 C 1126.246094 650.546875 1126.515625 650.292969 1126.785156 650.039062 C 1126.339844 648.644531 1123.554688 647.1875 1128.621094 643.730469 C 1128.023438 633.167969 1112.953125 594.074219 1109.171875 584.285156 C 1108.125 584.59375 1107.082031 584.910156 1106.042969 585.230469 C 1112.40625 615.089844 1118.785156 644.941406 1125.140625 674.796875 C 1156.828125 693.9375 1162.433594 695.535156 1166.519531 703.246094 C 1172.101562 701.625 1184.300781 718.195312 1183.601562 718.824219 C 1176.519531 726.125 1166.304688 729.234375 1164.109375 719.457031 C 1163.820312 719.125 1163.46875 718.84375 1163.167969 718.570312 C 1163.324219 718.410156 1163.632812 718.085938 1163.789062 717.921875 C 1163.15625 717.375 1162.40625 717.011719 1161.628906 716.765625 C 1161.820312 716.421875 1162.015625 716.085938 1162.214844 715.753906 C 1161.707031 715.007812 1158.621094 714.316406 1159.875 709.8125 C 1154.488281 702.804688 1135.75 692.050781 1127.972656 687.648438 C 1128.597656 691.484375 1129.199219 695.320312 1129.851562 699.152344 C 1134.28125 700.195312 1133.589844 703.160156 1134.210938 707.277344 C 1133.820312 707.703125 1133.289062 708.058594 1133.113281 708.636719 C 1133.164062 709.539062 1134.058594 709.976562 1134.691406 710.472656 C 1134.339844 710.835938 1133.597656 711.058594 1133.703125 711.679688 C 1134 712.242188 1134.550781 712.597656 1135.011719 713.03125 C 1134.703125 713.234375 1134.402344 713.445312 1134.109375 713.664062 C 1134.519531 714.679688 1135.273438 715.492188 1136.105469 716.195312 C 1136.339844 717.527344 1136.777344 718.828125 1136.910156 720.179688 C 1136.332031 722.292969 1129.871094 722.582031 1127.691406 722.660156 C 1122.980469 720.738281 1120.289062 718.28125 1121.363281 712.894531 C 1122.601562 712.355469 1122.3125 711.054688 1121.863281 710.066406 C 1123.039062 709.425781 1122.214844 708.203125 1121.761719 707.371094 C 1122.058594 707.136719 1122.359375 706.921875 1122.679688 706.710938 C 1122.328125 705.902344 1121.714844 705.28125 1121.015625 704.78125 C 1120.816406 702.011719 1121.53125 700.820312 1124.515625 699.183594 C 1123.894531 694.191406 1123.269531 689.199219 1122.644531 684.210938 C 1114.605469 679.609375 1106.566406 675.023438 1098.527344 670.425781 C 1098.207031 673.140625 1097.902344 675.851562 1097.585938 678.566406 C 1073.3125 684.960938 1082.082031 682.894531 1065.347656 683.976562 C 1064.011719 684.753906 1034.253906 705.855469 1028.980469 709.589844 C 1028.867188 710.410156 1028.765625 711.246094 1028.667969 712.082031 C 1025.359375 712.515625 1022.039062 712.882812 1018.734375 713.351562 C 1016.902344 715.941406 1014.371094 716.433594 1009.914062 716.171875 C 1009.789062 716.679688 1009.105469 720.910156 1006.964844 719.390625 C 1006.613281 718.855469 1006.382812 718.257812 1006.042969 717.734375 C 1004.917969 717.515625 1004.523438 719.015625 1003.578125 719.363281 C 1002.710938 719.328125 1002.109375 718.636719 1001.480469 718.144531 C 1002.183594 715.316406 999.679688 713.230469 997.65625 711.753906 C 992.867188 735.007812 988.058594 758.253906 983.273438 781.503906 C 985.988281 783.640625 985.863281 787.316406 985.441406 791.210938 C 983.914062 792.386719 983.808594 791.933594 984.347656 794.617188 C 984.109375 794.875 983.867188 795.140625 983.675781 795.449219 C 983.65625 796.105469 984.109375 796.660156 984.382812 797.242188 C 982.914062 798.65625 982.742188 798.390625 984.472656 800.488281 C 984.046875 802.726562 984.484375 805.460938 982.65625 807.167969 L 982.585938 807.308594 L 982.105469 807.308594 C 977.0625 804.816406 968.246094 809.996094 972.246094 797.398438 C 972.828125 797.105469 973.65625 797.035156 973.945312 796.367188 C 974.019531 795.695312 973.597656 795.125 973.355469 794.550781 C 973.753906 794.316406 974.214844 794.15625 974.554688 793.828125 C 974.867188 793.078125 974.25 792.398438 973.992188 791.753906 C 974.464844 791.515625 975.070312 791.4375 975.425781 791.003906 C 975.742188 790.105469 975.132812 789.253906 974.816406 788.453125 C 975.4375 784.332031 974.925781 781.851562 979.492188 780.914062 C 984.414062 757.351562 989.296875 733.777344 994.207031 710.210938 C 993.265625 709.785156 992.324219 709.367188 991.386719 708.949219 C 991.488281 707.382812 991.59375 705.816406 991.703125 704.253906 C 984.503906 696.746094 977.316406 689.230469 970.109375 681.734375 C 966.085938 682.269531 959.792969 681.394531 955.75 680.746094 C 956.761719 682.710938 958.753906 692.1875 945.0625 688.601562 C 946.117188 679.335938 942.832031 686.375 946.574219 667.347656 C 942.84375 664.960938 941.3125 659.597656 940.316406 655.082031 C 879.070312 689.160156 882.734375 685.644531 878.96875 691.597656 C 882.242188 694.410156 875.378906 705.175781 870.46875 705.53125 C 870.683594 707.398438 870.886719 709.269531 871.097656 711.140625 C 871.824219 711.136719 872.550781 711.136719 873.289062 711.144531 C 873.816406 714.464844 874.320312 717.789062 874.855469 721.109375 C 877.714844 721.375 878.222656 721.339844 879.058594 723.964844 C 879.53125 723.753906 880.011719 723.546875 880.496094 723.351562 C 884.636719 698.464844 894.226562 737.449219 885.960938 736.003906 C 885.613281 735.796875 880.449219 728.710938 880.234375 728.40625 C 878.59375 732.308594 877.066406 731.363281 872.351562 733.074219 C 872.769531 736.503906 873.175781 739.929688 873.605469 743.355469 C 874.183594 743.398438 874.792969 743.355469 875.371094 743.542969 C 877.863281 745.429688 888.300781 774.242188 882.363281 778.179688 C 863.75 790.578125 860.113281 765.632812 866.089844 744.664062 C 866.601562 744.542969 867.125 744.445312 867.648438 744.34375 C 867.023438 740.902344 866.398438 737.457031 865.773438 734.015625 C 864.621094 733.902344 863.472656 733.796875 862.324219 733.695312 C 861.277344 727.015625 860.242188 720.335938 859.191406 713.660156 C 859.8125 713.230469 860.441406 712.8125 861.074219 712.394531 C 859.09375 699.035156 857.101562 685.675781 855.128906 672.316406 C 854.597656 671.992188 854.078125 671.671875 853.558594 671.359375 C 853.234375 668.855469 852.933594 666.355469 852.613281 663.855469 C 851.667969 664.789062 850.734375 665.726562 849.796875 666.664062 C 848.75 666.039062 847.707031 665.410156 846.664062 664.789062 C 837.789062 677.210938 828.910156 689.632812 820.039062 702.0625 C 820.238281 702.472656 820.445312 702.890625 820.660156 703.316406 C 816.613281 708.4375 807.289062 722.523438 801.820312 716.203125 C 783.566406 735.171875 756.671875 750 732.113281 758.113281 C 732.855469 766.871094 715.539062 769.632812 714.6875 761.265625 C 688.640625 767.582031 659.054688 763.757812 635.214844 754.066406 C 634.792969 754.683594 634.375 755.3125 633.957031 755.9375 C 631.035156 755.933594 628.113281 755.9375 625.1875 755.9375 C 622.890625 753.542969 620.597656 751.140625 618.300781 748.738281 C 618.292969 747.792969 618.296875 746.855469 618.292969 745.917969 C 593.519531 734.589844 571.035156 714.132812 556.898438 694.234375 C 556.15625 694.648438 555.421875 695.078125 554.679688 695.492188 C 547.0625 692.574219 542.835938 685.59375 547.496094 680.457031 C 543.472656 674.632812 540.636719 668.105469 537.789062 661.65625 C 534.980469 670.949219 532.144531 680.230469 529.34375 689.523438 C 529.964844 689.632812 530.585938 689.734375 531.210938 689.855469 C 529.851562 696.21875 528.5 702.582031 527.140625 708.949219 C 525.363281 708.953125 523.589844 708.949219 521.816406 708.953125 C 520.886719 712.070312 519.933594 715.175781 519.023438 718.300781 C 524.265625 720.960938 517.945312 773.246094 499.027344 746.835938 C 498.414062 745.871094 497.777344 744.664062 498.09375 743.511719 C 501.664062 738.160156 507.582031 717.429688 513.039062 716.125 C 513.90625 713.113281 514.703125 710.089844 515.554688 707.074219 C 510.746094 704.625 515.394531 707.808594 503.335938 696.425781 C 503.539062 696 503.75 695.582031 503.964844 695.171875 C 506.988281 696.007812 510.015625 696.839844 513.039062 697.675781 C 515.796875 695.140625 514.601562 697.9375 518.050781 686.410156 C 518.78125 686.292969 519.511719 686.1875 520.246094 686.082031 C 522.871094 677.109375 525.457031 668.121094 528.085938 659.148438 C 517.648438 664.039062 514.074219 665.203125 492.683594 679.203125 C 492.574219 680.03125 492.472656 680.871094 492.367188 681.710938 C 476.035156 681.117188 480.242188 684.742188 471.046875 683.601562 C 468.738281 685.046875 466.335938 686.527344 463.554688 686.777344 C 463.550781 686.125 463.550781 685.476562 463.546875 684.835938 C 462.917969 685.144531 462.292969 685.457031 461.667969 685.773438 C 461.144531 685.5625 460.625 685.355469 460.109375 685.152344 C 460 684.3125 459.894531 683.472656 459.785156 682.644531 C 450.808594 678.355469 441.828125 674.082031 432.847656 669.800781 C 394.816406 735.105469 397.921875 727.988281 391.816406 744.347656 C 396.132812 755.34375 391.074219 748.265625 392 754.230469 C 391.253906 755.042969 390.886719 754.578125 392 756.699219 C 390.664062 757.40625 392.09375 768.382812 384.589844 765.347656 C 377.851562 763.042969 374.1875 762.671875 374.101562 759.386719 C 374.144531 757.855469 374.96875 756.503906 375.503906 755.109375 C 377.378906 754.582031 377.441406 755.042969 377.808594 752.015625 C 378.183594 751.75 378.6875 751.621094 378.9375 751.222656 C 379.039062 750.628906 378.867188 750.054688 378.796875 749.484375 C 379.890625 748.414062 380.164062 748.945312 379.335938 746.476562 C 382.015625 741.359375 382.359375 739.261719 387.136719 739.902344 C 394.398438 722.484375 386.824219 737.125 427.816406 665.429688 C 426.863281 663.050781 426.851562 661.039062 429.664062 658.808594 C 430.203125 659.023438 430.742188 659.242188 431.28125 659.46875 C 435.148438 652.578125 439 645.683594 442.875 638.800781 C 437.515625 630.296875 432.808594 631.621094 427.832031 622.195312 C 391.460938 649.804688 393.125 648.257812 392.28125 649.933594 C 391.695312 651.125 391.359375 652.636719 392.113281 653.835938 C 392.640625 654.683594 392.855469 655.859375 392.082031 656.648438 C 390.589844 658.375 390.382812 660.796875 390.703125 662.972656 C 391.1875 664.925781 383.03125 666.054688 381.058594 664.574219 C 378.496094 662.738281 377.207031 659.773438 375.613281 657.164062 C 372.933594 653.210938 441.777344 592.808594 464.804688 593.644531 C 464.585938 563.695312 464.390625 533.738281 464.171875 503.792969 C 454.253906 501.808594 436.238281 497.476562 432.527344 488.078125 C 426.792969 589.15625 432.941406 569.855469 413.308594 593.226562 C 411.914062 594.867188 410.609375 596.589844 409.019531 598.050781 C 400.878906 606.042969 401.363281 613.855469 402.472656 625.011719 C 399.242188 628.089844 396.429688 626.761719 393.105469 623.835938 C 395.546875 621.09375 395.859375 617.226562 396.210938 613.738281 C 396.730469 613.414062 397.25 613.09375 397.769531 612.78125 C 398.074219 610.851562 398.269531 608.90625 398.570312 606.980469 C 399.320312 603.804688 401.175781 601.003906 403.316406 598.589844 C 405.496094 596.078125 407.660156 593.558594 409.835938 591.039062 C 440.714844 556.375 418.472656 513.796875 429.378906 479.042969 C 420.644531 474.96875 422.90625 474.277344 424.050781 464.71875 C 421.785156 461.992188 423.0625 459.835938 425.320312 456.78125 C 425.332031 455.304688 425.328125 453.832031 425.332031 452.359375 C 421.875 451.699219 421.675781 452.265625 420.828125 454.597656 C 419.078125 454.273438 417.332031 453.972656 415.582031 453.667969 C 415.058594 449.8125 415.929688 445.910156 417.480469 442.390625 C 419.257812 442.605469 421.039062 442.804688 422.824219 443.027344 C 422.824219 444.09375 422.820312 445.167969 422.824219 446.242188 C 433.527344 448.371094 430.566406 445.667969 433.164062 360.960938 C 431.484375 360.847656 429.808594 360.746094 428.128906 360.636719 C 426.589844 357.105469 426.070312 352.804688 428.097656 349.355469 C 429.789062 349.367188 431.472656 349.363281 433.15625 349.363281 C 433.375 343.519531 433.578125 337.671875 433.789062 331.828125 C 434.203125 331.507812 434.621094 331.191406 435.039062 330.875 C 435.476562 321.839844 436.164062 323.246094 433.433594 321.378906 C 432.996094 318.96875 433.441406 316.320312 435.257812 314.5625 C 435.835938 312.019531 435.394531 312.09375 438.238281 312.652344 C 438.738281 312.257812 439.242188 311.859375 439.742188 311.464844 C 440.394531 308.09375 435.851562 300.289062 466.363281 298.300781 C 467.148438 207.308594 470.308594 230.117188 457.609375 199.070312 C 451.820312 198.945312 447.921875 186.417969 450.363281 182.050781 C 433.605469 142.609375 436.46875 139.105469 420.636719 142.5625 C 418.46875 142.4375 416.464844 140.578125 416.773438 138.292969 C 420.351562 136.109375 422.984375 133.4375 425.554688 134.640625 C 426.132812 134.261719 426.703125 133.882812 427.277344 133.503906 C 426.804688 125.148438 419.277344 132.203125 369.46875 100.117188 C 226.777344 7.527344 425.394531 25.078125 540.433594 108.339844 C 615.0625 161.386719 558.621094 180.796875 442.878906 136.679688 C 443.394531 138.351562 443.921875 140.015625 444.4375 141.6875 C 443.601562 142.316406 442.765625 142.9375 441.933594 143.566406 C 447.152344 155.144531 452.363281 166.730469 457.585938 178.304688 C 468.878906 175.1875 480.054688 173.21875 480.179688 184.917969 C 481.109375 184.804688 482.039062 184.703125 482.972656 184.597656 C 484.015625 181.464844 485.058594 178.335938 486.105469 175.203125 C 487.148438 175.410156 488.191406 175.617188 489.234375 175.832031 C 491.160156 192.917969 491.242188 188.527344 488.921875 200.261719 C 488.1875 199.949219 487.457031 199.632812 486.726562 199.316406 C 485.570312 196.707031 484.4375 194.09375 483.28125 191.488281 C 482.246094 191.59375 481.214844 191.695312 480.179688 191.804688 C 480.109375 194.394531 479.730469 197.644531 477.027344 198.824219 C 476.898438 203.375 476.816406 207.921875 476.707031 212.472656 C 475.980469 212.898438 475.242188 213.308594 474.515625 213.734375 C 474.59375 224.707031 491.5 255.390625 495.6875 265.21875 C 495.921875 266.972656 494.941406 272.113281 486.734375 269.507812 C 478.097656 248.316406 489.261719 269.015625 474.847656 241.089844 C 474.585938 259.941406 474.429688 278.796875 474.195312 297.648438 C 479.589844 296.371094 488.628906 296.566406 494.21875 296.742188 C 491.808594 291.363281 503.078125 265.503906 505.796875 263.503906 C 511.128906 264.191406 516.472656 264.765625 521.808594 265.414062 C 524.933594 260.972656 523.996094 260.617188 527.113281 258.5 C 531.988281 259.472656 534.628906 257.898438 532.484375 267.605469 C 540.382812 268.792969 542.429688 269.554688 542.824219 267.929688 C 542.148438 266.039062 540.0625 265.292969 545.039062 263.46875 C 546.785156 258.414062 545.546875 257.921875 543 257.855469 C 539.109375 253.019531 560.941406 247.960938 554.796875 255.785156 C 553.472656 256.996094 549.675781 258.480469 550.269531 265.089844 C 553.125 265.222656 555.976562 265.285156 558.832031 265.429688 C 560.15625 262.84375 559.789062 257.539062 563.53125 259.332031 C 566.832031 247.640625 565.621094 254.09375 570.347656 232.570312 C 568.839844 228.882812 569.589844 228.027344 571.875 226.503906 C 572.523438 222.546875 572.878906 223.332031 574.457031 223.304688 C 578.035156 219.976562 582.773438 218.34375 587.234375 216.558594 C 587.273438 213.226562 587.136719 212.398438 590.769531 213.671875 C 610.496094 197.472656 652.289062 203.050781 677.230469 208.257812 C 683.582031 209.507812 689.886719 211.015625 696.148438 212.660156 C 707.214844 215.488281 718.113281 219.160156 728.375 224.210938 C 734.398438 227.21875 740.242188 230.71875 745.21875 235.292969 C 754.882812 244.464844 752.523438 248.695312 751.761719 255.992188 C 757.226562 262.484375 751.746094 265.1875 750.183594 274.8125 C 749.449219 274.703125 748.71875 274.597656 747.992188 274.496094 C 747.359375 277.519531 746.738281 280.550781 746.109375 283.574219 C 746.523438 284.097656 746.945312 284.625 747.363281 285.152344 C 746.527344 289.429688 745.691406 293.707031 744.859375 297.988281 C 746.90625 298.667969 749.035156 299.117188 751.039062 299.917969 C 753.964844 302.796875 750.433594 308.789062 747.683594 312.089844 C 746.011719 311.667969 744.339844 311.25 742.667969 310.832031 C 740.6875 322.300781 738.683594 333.761719 736.734375 345.230469 C 737.3125 346.179688 737.960938 347.222656 737.792969 348.390625 C 737.695312 349.550781 736.878906 350.433594 736.132812 351.257812 C 736.761719 352.933594 737.242188 354.796875 736.714844 356.574219 C 736.425781 357.707031 735.652344 358.613281 734.867188 359.441406 C 734.621094 361.882812 734.125 364.359375 732.820312 366.46875 C 732.078125 367.574219 732.320312 369.078125 731.488281 370.125 C 730.933594 370.816406 730.066406 370.28125 729.402344 370.109375 C 710.355469 379.652344 684.242188 378.699219 663.109375 375.996094 C 648.167969 374 633.386719 370.839844 618.929688 366.589844 C 617.757812 395.375 616.664062 424.167969 615.457031 452.957031 C 618.085938 449.269531 628.453125 444.433594 631.796875 444.21875 C 643.808594 430.527344 661.183594 419.511719 677.503906 412 C 677.1875 410.746094 676.875 409.488281 676.558594 408.238281 C 682.429688 403.894531 686.152344 404.261719 688.847656 405.390625 C 689.199219 405.203125 689.558594 405.023438 689.921875 404.835938 C 690.71875 401.714844 692.855469 401.082031 696.875 399.773438 C 700.734375 394.589844 708.886719 396.835938 709.5625 401.042969 C 734.074219 395.027344 762.699219 397.59375 786.144531 406.023438 C 790.925781 399.910156 803.210938 406.253906 801.292969 412.964844 C 823.722656 422.765625 844.964844 441.640625 859.457031 460.765625 C 863.589844 459.507812 869.660156 464.980469 869.925781 465.484375 C 870.675781 466.835938 870.480469 468.441406 870.3125 469.910156 C 870.140625 471.105469 871.003906 472.277344 870.523438 473.453125 C 870.15625 474.421875 869.15625 474.875 868.328125 475.367188 C 880.03125 496.738281 889.675781 524.738281 888.660156 548.578125 C 889.59375 548.578125 890.523438 548.574219 891.464844 548.578125 C 897.207031 561.546875 891.339844 567.128906 887.085938 566.808594 C 887.636719 581.074219 878.597656 603.011719 872.683594 615.917969 C 899.207031 601.628906 888.835938 606.625 903.28125 600.300781 C 902.785156 599.105469 902.570312 597.632812 903.398438 596.53125 C 905.785156 594.984375 906.972656 598.078125 907.519531 599.3125 C 920.019531 595.628906 911.503906 596.945312 922.792969 594.617188 C 923.417969 579.191406 924.0625 563.773438 924.65625 548.347656 C 920.238281 544.1875 924.625 537.597656 919.976562 529.351562 C 913.664062 537.003906 907.765625 526.765625 906.597656 523.007812 C 911.046875 522.785156 908.824219 525.734375 918.289062 524.484375 C 918.863281 520.613281 922.742188 520.917969 926.867188 521.3125 C 927.285156 503.882812 927.695312 486.457031 928.125 469.027344 C 925.828125 468.902344 923.527344 468.816406 921.230469 468.699219 C 915.621094 495.636719 912.1875 491.222656 911.511719 476.039062 C 908.226562 474.34375 910.085938 473.101562 909.519531 470.972656 C 908.558594 469.433594 906.542969 469.308594 904.9375 468.976562 C 904.984375 466.90625 905.269531 464.84375 905.171875 462.78125 C 903.882812 458.722656 900.976562 457.609375 904.042969 454.160156 C 902.011719 444.167969 896.222656 446.769531 887.394531 423.601562 C 847.816406 416.648438 848.234375 417.6875 851.355469 405.117188 C 842.890625 403.207031 842.449219 402.421875 843.160156 406.671875 C 844.847656 407.382812 846.523438 408.125 848.199219 408.871094 C 842.777344 409.5625 841.632812 410.914062 828.214844 403.578125 C 827.226562 404.964844 825.515625 405.113281 823.988281 405.429688 C 821.128906 408.503906 817.816406 405.859375 808.871094 401.417969 C 809.144531 401.3125 809.691406 401.089844 809.964844 400.980469 C 809.441406 400.160156 808.648438 399.601562 807.832031 399.113281 C 806.175781 383.601562 803.589844 380.152344 816.839844 373.800781 C 806.773438 372.449219 796.574219 370.890625 787.164062 366.90625 C 780.085938 363.726562 772.4375 358.175781 775.210938 350.894531 C 772.675781 345.597656 773.183594 348.65625 773.0625 343.417969 C 772.328125 342.679688 771.59375 341.953125 770.867188 341.222656 C 770.859375 339.339844 770.859375 337.460938 770.867188 335.582031 C 771.375 335.472656 771.902344 335.367188 772.425781 335.261719 C 772.425781 335.261719 771.445312 326.6875 771.804688 285.152344 C 769.808594 284.933594 767.8125 284.726562 765.8125 284.523438 C 763.554688 280.476562 764.589844 275.515625 766.769531 271.667969 C 768.445312 271.785156 770.121094 271.882812 771.800781 271.996094 C 771.910156 267.402344 772.007812 262.804688 772.117188 258.210938 C 772.632812 258.207031 773.15625 258.207031 773.683594 258.207031 C 773.679688 255.492188 773.683594 252.78125 773.683594 250.066406 C 772.738281 249.648438 771.800781 249.226562 770.863281 248.808594 C 770.964844 246.828125 771.066406 244.847656 771.179688 242.867188 C 771.902344 242.757812 772.636719 242.648438 773.367188 242.542969 C 773.472656 241.1875 773.578125 239.832031 773.6875 238.472656 C 774.402344 238.578125 775.113281 238.679688 775.835938 238.785156 C 788.050781 208.292969 931.136719 207.34375 934.402344 256.578125 C 936.242188 258.84375 936.554688 259.871094 934.085938 262.347656 C 933.945312 267.234375 933.871094 272.117188 933.757812 277 C 934.59375 277.839844 935.429688 278.679688 936.269531 279.515625 C 941.066406 278.769531 938.003906 278.796875 947.226562 279.199219 C 947.328125 277.839844 947.4375 276.484375 947.542969 275.128906 C 943.765625 272.75 941.878906 272.324219 942.460938 270.441406 C 943.441406 269.503906 944.886719 270.480469 948.121094 271.339844 C 950.136719 270.523438 952.285156 269.992188 953.375 272.089844 C 953.484375 272.683594 953.277344 273.289062 953.214844 273.886719 C 960.769531 279.15625 959.761719 280.625 952.871094 278.253906 C 952.65625 279.167969 952.453125 280.085938 952.269531 281.011719 C 953.28125 282.503906 953.566406 284.3125 953.542969 286.085938 L 963.152344 286.085938 C 963.832031 279.023438 966.316406 278.203125 973.542969 280.128906 C 973.644531 281.796875 973.75 283.46875 973.855469 285.136719 C 980.957031 285.4375 990.21875 285.65625 991.585938 285.902344 C 994.710938 287.867188 997.003906 300.910156 997.667969 304.527344 C 1006.796875 311.425781 996.03125 321.320312 995.140625 330.238281 C 999.144531 331.152344 1003.042969 332.484375 1006.875 333.960938 C 1007.085938 333.171875 1007.597656 332.550781 1008.257812 332.085938 C 1009 332.324219 1009.753906 332.546875 1010.507812 332.769531 C 1010.40625 325.679688 1010.296875 318.589844 1010.199219 311.503906 C 1007.769531 312.9375 1004.683594 312.703125 1002.355469 311.183594 C 1001.644531 287.050781 1000.902344 262.921875 1000.167969 238.789062 C 993.101562 235.910156 989.632812 233.660156 994.210938 229.710938 C 993.40625 223.351562 993.332031 215.449219 999.226562 213.011719 C 998.082031 176.808594 996.9375 140.613281 995.78125 104.410156 C 995.25 104.304688 994.738281 104.199219 994.222656 104.09375 C 994.003906 98.769531 993.804688 93.449219 993.589844 88.125 C 992.847656 88.015625 992.121094 87.910156 991.394531 87.804688 C 987.679688 79.644531 986.714844 70.082031 989.5 61.492188 C 967.148438 63.085938 903.601562 67.550781 883.375 57.382812 C 881.710938 56.472656 879.828125 55.320312 879.285156 53.386719 C 879.097656 50.980469 880.804688 48.972656 882.511719 47.503906 C 898.386719 34.492188 958.847656 24.9375 979.117188 22.035156 C 975.757812 5.699219 981.601562 7.851562 985.132812 6.992188 C 984.796875 5.007812 984.535156 3.015625 984.175781 1.039062 M 576.910156 231.859375 C 576.269531 232.742188 575.050781 232.734375 574.078125 232.867188 C 573.132812 233.96875 572.65625 235.453125 573.125 236.871094 C 576.476562 237.191406 578.242188 237.441406 577.296875 240.671875 C 578.304688 241.507812 579.335938 242.308594 580.335938 243.152344 C 581.3125 239.746094 582.023438 236.269531 582.902344 232.839844 C 581.625 231.648438 580.066406 230.65625 579.433594 228.949219 C 578.039062 229.304688 577.621094 230.796875 576.910156 231.859375 M 1021.472656 245.050781 C 1021.257812 246.613281 1021.050781 248.179688 1020.84375 249.746094 C 1020.109375 250.269531 1019.375 250.792969 1018.648438 251.324219 C 1019.3125 329.640625 1019.167969 324.320312 1019.402344 327.566406 C 1019.675781 324.578125 1020.714844 321.097656 1023.695312 321.425781 C 1024.636719 321.832031 1025.296875 322.6875 1026.101562 323.3125 C 1026.101562 323.3125 1024.601562 343.710938 1024.601562 343.71875 C 1025.121094 344.34375 1025.644531 344.96875 1026.171875 345.601562 C 1026.058594 348.835938 1025.964844 352.074219 1025.851562 355.308594 C 1025.019531 355.515625 1024.191406 355.722656 1023.371094 355.9375 C 1024.324219 360.109375 1023.542969 360.164062 1022.101562 360.753906 C 1022.203125 361.859375 1022.308594 362.96875 1022.414062 364.082031 C 1027.890625 364 1035.082031 364.386719 1039.648438 367.5 C 1039.835938 372.417969 1040.0625 377.332031 1040.265625 382.25 C 1050.882812 381.511719 1040.410156 386.054688 1034.3125 389.773438 C 1034.101562 390.597656 1033.894531 391.425781 1033.6875 392.257812 C 1029.148438 392.628906 1024.691406 393.632812 1020.222656 394.464844 C 1020.109375 401.039062 1020.011719 407.609375 1019.90625 414.1875 C 1026.910156 415.265625 1025.925781 427.628906 1023.679688 429.328125 C 1023.402344 434.035156 1023.402344 439.015625 1021.183594 443.296875 C 1020.976562 451.132812 1020.90625 458.980469 1020.753906 466.824219 C 1020.15625 501.902344 1019.554688 536.980469 1018.96875 572.058594 C 1049.421875 526.171875 1055.878906 522.5625 1055.878906 522.5625 C 1056.007812 516.761719 1053.75 507.109375 1061.234375 518.15625 C 1062.894531 515.542969 1066.238281 515.121094 1069.070312 515.289062 C 1070.703125 514.667969 1072.367188 514.121094 1074.09375 513.804688 C 1074.625 486.136719 1075.121094 458.46875 1075.65625 430.804688 C 1075.722656 429.707031 1075.035156 428.757812 1074.96875 427.683594 C 1074.574219 424.035156 1074.808594 420.359375 1075.035156 416.710938 C 1073.679688 416.28125 1072.324219 415.871094 1070.96875 415.453125 C 1070.410156 398.695312 1069.347656 398.179688 1078.480469 396.957031 C 1079.636719 355.507812 1080.78125 314.0625 1081.929688 272.613281 C 1081.410156 272.40625 1080.894531 272.203125 1080.386719 272 C 1079.644531 273.324219 1079.507812 274.992188 1073.785156 272.625 C 1073.78125 271.792969 1073.78125 270.964844 1073.792969 270.136719 C 1076.765625 268.582031 1076.21875 268.316406 1077.546875 263.222656 C 1076.601562 262.902344 1075.664062 262.589844 1074.730469 262.277344 C 1074.828125 261.546875 1074.925781 260.816406 1075.039062 260.089844 C 1073.996094 258.621094 1072.945312 257.164062 1071.90625 255.699219 C 1072.109375 254.136719 1072.316406 252.578125 1072.535156 251.015625 C 1055.40625 250.167969 1038.3125 248.328125 1021.472656 245.054688 M 776.5 272.929688 C 777.75 272.929688 779.003906 272.929688 780.257812 272.925781 C 780.050781 270.105469 779.835938 267.289062 779.632812 264.472656 C 778.597656 263.644531 777.5625 262.824219 776.546875 261.976562 C 776.4375 265.625 776.527344 269.277344 776.5 272.929688 M 924.957031 276.375 C 926.851562 276.261719 928.753906 276.199219 930.648438 276.027344 C 927.476562 272.25 926.339844 273.003906 924.957031 276.375 M 916.527344 275.4375 C 916.527344 278.359375 916.527344 281.28125 916.53125 284.207031 C 917.570312 283.789062 918.617188 283.371094 919.660156 282.957031 C 919.65625 282.117188 919.65625 281.285156 919.660156 280.457031 C 919.238281 280.238281 918.820312 280.027344 918.410156 279.816406 C 918.511719 278.042969 918.617188 276.269531 918.722656 274.496094 C 917.988281 274.808594 917.253906 275.121094 916.527344 275.4375 M 517.746094 279.523438 C 517.746094 280.238281 517.746094 280.960938 517.753906 281.679688 C 522.140625 285.664062 523.347656 290.835938 519.625 296.425781 C 532.914062 296.019531 546.257812 296.667969 559.414062 298.617188 C 559.207031 297.597656 559.007812 296.578125 558.789062 295.5625 C 554.820312 294.53125 554.882812 291.082031 555.640625 287.027344 C 551.03125 286.386719 546.417969 285.777344 541.8125 285.132812 C 540.464844 283.726562 539.421875 281.820312 539.925781 279.820312 C 537.363281 279.601562 534.800781 279.417969 532.238281 279.191406 C 532.234375 282.628906 528.089844 281.554688 521.820312 281.070312 C 521.816406 280.34375 521.820312 279.621094 521.820312 278.902344 C 520.496094 279.285156 519.121094 279.476562 517.746094 279.523438 M 776.503906 285.460938 C 775.25 335.554688 775.035156 328.503906 776.183594 334.632812 C 777.335938 333.597656 778.484375 332.550781 779.628906 331.507812 C 779.847656 316.574219 780.046875 301.644531 780.257812 286.714844 C 779.007812 286.292969 777.753906 285.878906 776.503906 285.460938 M 953.828125 297.351562 C 954.75 305.585938 953.640625 303.929688 935.957031 303.941406 C 934.734375 306.507812 933.585938 309.484375 930.945312 310.910156 C 930.925781 312.972656 930.941406 315.035156 930.941406 317.09375 C 930.414062 317.300781 929.898438 317.511719 929.382812 317.722656 C 929.320312 318.167969 929.285156 318.625 929.234375 319.078125 C 928.84375 316.117188 927.191406 310.152344 923.441406 308.589844 C 923.394531 313.40625 923.433594 318.21875 923.421875 323.035156 C 935.132812 323.5 946.839844 324.074219 958.523438 324.988281 C 964.804688 325.449219 971.125 325.851562 977.304688 327.117188 C 977.292969 326.597656 977.292969 326.082031 977.300781 325.570312 C 974.210938 322.816406 971.960938 318.828125 972.15625 314.601562 C 972.28125 311.0625 974.097656 307.839844 976.359375 305.207031 C 976.367188 303.832031 976.355469 302.460938 976.371094 301.089844 C 975.609375 300.695312 974.792969 300.140625 973.894531 300.347656 C 973.613281 300.585938 973.351562 300.839844 973.105469 301.109375 C 969.683594 301.023438 966.265625 300.90625 962.851562 300.804688 C 962.234375 299.871094 961.792969 298.699219 962.480469 297.675781 C 959.59375 297.5625 956.710938 297.480469 953.828125 297.351562 M 916.867188 301.929688 C 916.484375 308.863281 916.234375 315.800781 915.902344 322.734375 C 917.050781 322.9375 918.195312 323.152344 919.347656 323.367188 C 918.570312 302.734375 919.222656 306.808594 916.867188 301.929688 M 437.242188 322.738281 C 437.035156 325.449219 436.8125 328.160156 436.621094 330.871094 C 437.882812 332.710938 437.488281 329.609375 437.871094 349.378906 C 438.933594 349.472656 440.597656 349.757812 440.996094 348.421875 C 440.78125 346.742188 438.605469 341.398438 441.292969 338.9375 C 441.558594 334.371094 441.714844 329.804688 441.941406 325.242188 C 440.375 324.402344 438.808594 323.574219 437.242188 322.738281 M 916.53125 327.117188 C 916.527344 328.683594 916.527344 330.25 916.53125 331.816406 C 917.570312 332.441406 918.613281 333.070312 919.660156 333.699219 C 919.5625 331.503906 919.453125 329.3125 919.351562 327.117188 C 918.402344 327.113281 917.46875 327.113281 916.53125 327.117188 M 436.929688 360.953125 C 436.183594 391.664062 435.488281 422.375 434.71875 453.082031 C 439.3125 455.6875 437.644531 458.894531 440.695312 360.632812 C 439.4375 360.738281 438.183594 360.839844 436.929688 360.953125 M 809.761719 390.082031 C 808.652344 392.332031 808.644531 399.703125 812.554688 397.015625 C 812.414062 395.757812 812.328125 394.496094 812.214844 393.238281 C 808.820312 391.234375 810.210938 391.09375 811.289062 389.949219 C 810.78125 389.707031 810.082031 389.453125 809.761719 390.082031 M 816.257812 395.703125 C 815.230469 398.273438 815.398438 399.324219 818.46875 400.164062 C 818.484375 399.101562 818.484375 398.035156 818.484375 396.972656 C 817.738281 396.546875 817 396.125 816.257812 395.703125 M 826.625 396.664062 C 826.945312 398.328125 827.25 399.992188 827.566406 401.660156 C 834.160156 401.175781 831.035156 400.976562 839.160156 405.113281 C 840.28125 397.023438 843.394531 397.246094 826.625 396.664062 M 822.246094 398.539062 C 822.347656 399.488281 822.457031 400.441406 822.539062 401.394531 C 825.652344 403.285156 825.695312 400.078125 824.75 397.910156 C 823.910156 398.117188 823.074219 398.328125 822.246094 398.539062 M 1003.5 400.613281 C 999.929688 402.132812 996.136719 403.054688 992.347656 403.863281 C 992.234375 404.90625 992.132812 405.949219 992.027344 406.992188 C 993.175781 406.886719 994.332031 406.792969 995.488281 406.667969 C 997.234375 405.019531 994.800781 405.808594 1008.320312 403.238281 C 1008.320312 401.457031 1008.320312 399.683594 1008.320312 397.90625 C 1006.601562 398.617188 1005.230469 399.933594 1003.5 400.613281 M 859.78125 406.34375 C 857.6875 408.757812 858.460938 412.261719 858.886719 415.132812 C 862.507812 415.679688 866.144531 416.132812 869.761719 416.722656 C 870.339844 417.382812 871.144531 417.835938 872.058594 417.773438 C 904.035156 416.710938 855.394531 412.285156 899.628906 417.332031 C 899.1875 414.929688 898.785156 412.523438 898.363281 410.121094 C 893.304688 409.972656 894.476562 411.546875 859.78125 406.34375 M 951.914062 409.84375 C 938.246094 410.75 924.539062 410.738281 910.847656 410.441406 C 917.644531 423.210938 940.046875 415.183594 980.722656 407.066406 C 971.160156 408.347656 961.550781 409.320312 951.914062 409.84375 M 996.109375 410.128906 C 997.164062 413.609375 999.222656 419.40625 1002.027344 417.078125 C 1001.433594 413.542969 1004.710938 413.097656 1008.320312 412.917969 C 1008.207031 411.257812 1008.109375 409.59375 1008.003906 407.933594 C 1004.039062 408.667969 1000.070312 409.390625 996.109375 410.128906 M 901.808594 410.4375 C 902.328125 412.941406 902.847656 415.449219 903.375 417.953125 C 905.148438 418.171875 906.925781 418.375 908.707031 418.578125 C 907.226562 415.875 905.777344 413.152344 904.3125 410.4375 C 903.472656 410.4375 902.636719 410.4375 901.808594 410.4375 M 981.988281 413.953125 C 976.550781 414.84375 971.15625 416.023438 965.730469 417.011719 C 963.378906 420.101562 941.949219 448.378906 939.457031 451.800781 C 939.285156 453.949219 938.730469 474.058594 937.203125 522.203125 C 944.757812 522.359375 942.648438 531.683594 942.527344 534.792969 C 941.902344 535.214844 941.273438 535.625 940.652344 536.054688 C 940.230469 539.597656 939.816406 543.148438 939.398438 546.695312 C 938.773438 547.214844 938.148438 547.738281 937.523438 548.261719 C 937.308594 563.507812 937.101562 578.757812 936.898438 594.007812 C 937.515625 594.722656 938.128906 595.441406 938.757812 596.15625 C 951.539062 597.097656 984.261719 618.445312 985.78125 620.910156 C 991.898438 612.03125 998.140625 603.230469 1004.183594 594.308594 C 1004.339844 590.003906 1006.09375 445.199219 1006.121094 443.007812 C 1006.121094 443.007812 1001.738281 422.332031 1001.738281 422.332031 C 1000.996094 422.335938 1000.25 422.289062 999.527344 422.417969 C 997.761719 423.285156 996.996094 428.8125 996.722656 430.796875 C 995.671875 430.792969 994.625 430.792969 993.585938 430.796875 C 991.675781 425.289062 991.402344 419.375 991.402344 413.597656 C 988.496094 415.207031 985.066406 414.582031 981.988281 413.953125 M 941.925781 422.34375 C 942.941406 427.949219 942.371094 426.59375 940.339844 437.691406 C 940.855469 437.996094 941.375 438.3125 941.90625 438.628906 C 947.128906 431.953125 952.335938 425.265625 957.566406 418.597656 C 952.347656 419.820312 947.136719 421.089844 941.925781 422.34375 M 892.730469 423.910156 C 894.367188 427.570312 898.089844 438.289062 901.503906 438.472656 C 899.628906 434.292969 900.082031 429.546875 900.855469 425.164062 C 898.148438 424.734375 895.4375 424.324219 892.730469 423.910156 M 902.734375 425.128906 C 900.25 433.925781 903.894531 440.980469 905.324219 442.285156 C 909.761719 444.171875 910.371094 449.199219 910.929688 454.015625 C 911.570312 450.308594 912.347656 446.46875 911.753906 442.714844 C 910.554688 440.132812 910.785156 440.082031 911.835938 427.375 C 910.492188 427.402344 909.023438 427.40625 907.964844 426.457031 C 903.402344 426.175781 905.765625 425.703125 902.734375 425.128906 M 926.863281 440.199219 C 927.9375 445.515625 926.007812 445.941406 924.027344 444.589844 C 923.648438 443.21875 923.207031 441.867188 922.800781 440.511719 C 922.167969 440.503906 921.542969 440.5 920.925781 440.507812 C 918.910156 443.726562 919.425781 438.910156 919.035156 459.605469 C 921.117188 459.738281 923.207031 459.808594 925.292969 459.9375 C 926.65625 458.273438 928.003906 456.59375 929.367188 454.929688 C 929.484375 450.332031 929.578125 445.734375 929.6875 441.136719 C 928.746094 440.816406 927.800781 440.503906 926.863281 440.199219 M 478.277344 506.285156 C 478.382812 534.789062 478.484375 563.289062 478.589844 591.792969 C 484.261719 592.171875 495.628906 593.0625 500.023438 596.785156 C 497.65625 597.785156 496.335938 596.820312 494.25 598.078125 C 495.429688 599.710938 500.007812 600.441406 504.585938 601.199219 C 507.105469 570.617188 509.585938 540.023438 512.117188 509.4375 C 509.304688 509.542969 506.503906 509.238281 503.707031 509.023438 C 495.21875 508.242188 486.742188 507.269531 478.277344 506.28125 M 525.917969 510.382812 C 522.871094 510.273438 519.863281 509.683594 516.8125 509.71875 C 513.777344 540.523438 510.75 571.328125 507.726562 602.128906 C 511.234375 603.335938 518.09375 605.65625 520.863281 607.980469 C 520.003906 605.628906 519.210938 603.246094 518.375 600.882812 C 519.410156 598.0625 520.464844 595.242188 521.507812 592.425781 C 522.335938 592.414062 523.171875 592.417969 524.003906 592.421875 C 525.429688 578.101562 528.203125 563.902344 532.375 550.128906 C 536.1875 537.769531 541.230469 525.636719 548.761719 515.050781 C 548.023438 514.320312 547.292969 513.589844 546.566406 512.859375 C 546.671875 511.707031 546.773438 510.558594 546.878906 509.410156 C 539.988281 510.835938 532.910156 510.726562 525.917969 510.382812 M 1063.796875 527.878906 C 1063.777344 529.550781 1063.785156 531.230469 1063.785156 532.910156 C 1062.945312 533.21875 1062.109375 533.53125 1061.277344 533.84375 C 1060.75 533.210938 1060.230469 532.585938 1059.710938 531.964844 C 1049.839844 540.539062 1054.46875 535.425781 1020.871094 585.839844 C 1021.375 585.890625 1067.117188 589.378906 1071.625 587.140625 C 1072.4375 567.390625 1073.292969 547.644531 1074.125 527.898438 C 1071.125 528.058594 1067.828125 527.921875 1065.328125 526.046875 C 1064.8125 526.65625 1064.304688 527.269531 1063.792969 527.878906 M 1084.15625 535.730469 C 1083.714844 552.835938 1083.328125 569.945312 1082.882812 587.050781 C 1082.882812 587.050781 1087.738281 586.71875 1100.125 582.085938 C 1091.351562 542.238281 1093.398438 543.117188 1084.15625 535.730469 M 1101.292969 564.582031 C 1102.511719 570.007812 1103.878906 575.40625 1105.007812 580.851562 C 1105.425781 579.273438 1106.179688 577.820312 1107.007812 576.425781 C 1104.835938 571.085938 1102.632812 565.753906 1100.5 560.402344 C 1100.519531 561.832031 1101.007812 563.191406 1101.292969 564.582031 M 1097.617188 590.546875 C 1097.722656 594.402344 1097.816406 598.261719 1097.933594 602.117188 C 1100.480469 602.5625 1103.113281 603.222656 1105.148438 604.914062 C 1103.851562 599.507812 1102.640625 594.078125 1101.375 588.664062 C 1100.121094 589.289062 1098.863281 589.910156 1097.617188 590.546875 M 1030.898438 593.636719 C 1026.964844 594.527344 1022.878906 593.886719 1018.992188 593.046875 C 1018.878906 601.476562 1018.78125 609.90625 1018.675781 618.339844 C 1020.160156 618.613281 1020.953125 619.96875 1021.535156 621.234375 C 1027.007812 620.429688 1047.597656 628.003906 1053.441406 630.945312 C 1054.386719 619.148438 1055.324219 607.355469 1056.265625 595.558594 C 1025.488281 591.773438 1035.296875 592.828125 1030.898438 593.636719 M 451.292969 606.148438 C 444.347656 609.554688 438.324219 614.566406 432.863281 619.984375 C 433.796875 621.226562 434.445312 622.726562 435.578125 623.800781 C 441.867188 626.472656 443.96875 629.605469 445.796875 633.929688 C 449.617188 627.613281 453.464844 621.3125 457.273438 614.988281 C 456.515625 611.496094 457.558594 607.863281 459.480469 604.929688 C 459.375 604.410156 459.273438 603.890625 459.171875 603.382812 C 456.507812 604.199219 453.785156 604.886719 451.292969 606.148438 M 1082.703125 604.472656 C 1081.421875 605.152344 1081.371094 606.804688 1080.75 607.972656 C 1083.480469 609.570312 1081.574219 614.183594 1080.433594 617.4375 C 1081.296875 618.816406 1082.1875 620.066406 1079.207031 624.027344 C 1080.167969 625.195312 1081.328125 626.054688 1079.199219 631.21875 C 1080.230469 632.691406 1079.59375 634.519531 1078.847656 635.964844 C 1083.566406 636.015625 1086.386719 635.210938 1085.136719 640.65625 C 1085.136719 640.65625 1081.273438 641.992188 1072.578125 642.242188 C 1079.253906 646.410156 1085.933594 650.582031 1092.605469 654.757812 C 1092.613281 639.617188 1092.605469 624.476562 1092.609375 609.339844 C 1089.894531 607.351562 1087.179688 605.367188 1084.464844 603.390625 C 1083.875 603.746094 1083.28125 604.097656 1082.703125 604.472656 M 1061.914062 605.265625 C 1061.28125 613.722656 1060.660156 622.183594 1060.027344 630.640625 C 1063.351562 630.421875 1066.679688 630.230469 1070.007812 630.011719 C 1068.839844 627.242188 1069.871094 624.164062 1071.582031 621.875 C 1069.875 619.511719 1070.675781 616.425781 1071.886719 614.039062 C 1071.363281 612.425781 1071.472656 610.703125 1071.898438 609.085938 C 1075.589844 608.902344 1072.460938 605.40625 1071.28125 604.378906 C 1068.136719 603.519531 1065.015625 604.847656 1061.914062 605.265625 M 939.585938 607.324219 C 939.15625 608.03125 936.917969 611.929688 935.992188 613.085938 C 941.59375 618.050781 940.269531 615.375 942.246094 634.996094 C 959.617188 621.839844 962.265625 615.570312 962.265625 615.570312 C 952.421875 605.726562 940.945312 606.117188 939.585938 607.324219 M 482.140625 607.144531 C 481.320312 609.472656 481.652344 608.710938 478.613281 610.585938 C 479.144531 630.320312 479.65625 650.054688 480.183594 669.785156 C 483.523438 670.015625 486.867188 670.199219 490.207031 670.425781 C 492.480469 668.707031 494.390625 661.535156 494.300781 657.878906 C 494.707031 657.457031 495.117188 657.046875 495.523438 656.640625 C 497.234375 637.960938 500.027344 628.191406 504.300781 609.96875 C 494.890625 610.417969 497.050781 607.144531 482.140625 607.144531 M 910.890625 607.460938 C 909.910156 609.402344 909.820312 611.660156 910.289062 613.757812 C 906.898438 619.605469 905.046875 610.5625 904.605469 609.160156 C 901.082031 608.984375 889.429688 616.433594 886.179688 618.421875 C 893.929688 621.734375 897.441406 622.113281 914.539062 634.332031 C 915.886719 633.582031 916.59375 632.78125 922.191406 635.019531 C 922.402344 627.1875 922.609375 619.351562 922.824219 611.519531 C 919.09375 611.59375 917.769531 614.261719 913.71875 607.148438 C 912.773438 607.25 911.828125 607.351562 910.890625 607.460938 M 1097.625 610.261719 C 1097.410156 625.925781 1097.207031 641.59375 1096.992188 657.261719 C 1104.507812 661.75 1112.023438 666.238281 1119.542969 670.730469 C 1115.589844 652.039062 1111.605469 633.355469 1107.648438 614.667969 C 1103.597656 611.398438 1100.261719 609.339844 1097.625 610.265625 M 461.019531 617.464844 C 461.222656 622.144531 461.429688 619.875 449.78125 640.351562 C 454.894531 649.007812 459.992188 657.675781 465.125 666.324219 C 465.019531 648.257812 464.941406 630.191406 464.800781 612.128906 C 462.820312 613.183594 460.976562 615.078125 461.019531 617.464844 M 507.109375 612.15625 C 494.105469 672.636719 501.578125 646.125 499.910156 665.410156 C 510.136719 659.761719 520.375 654.136719 530.601562 648.496094 C 531.550781 638.660156 531.816406 651.324219 526.214844 621.558594 C 512.828125 614.027344 510.269531 612.414062 507.109375 612.15625 M 965.3125 622.453125 C 957.445312 632.574219 963.378906 625.613281 945.660156 641.671875 C 947.164062 640.945312 976.175781 624.660156 976.679688 624.378906 C 974.179688 622.699219 971.667969 621.035156 969.164062 619.367188 C 967.859375 620.367188 966.292969 621.089844 965.3125 622.453125 M 864.535156 630.964844 C 864.832031 631.355469 865.132812 631.75 865.445312 632.152344 C 868.199219 631.746094 885.046875 654.019531 865.175781 644.117188 C 865.730469 649.285156 865.753906 652.515625 864.253906 654.527344 C 865.152344 659.203125 866.117188 663.871094 867.042969 668.546875 C 866.519531 669.269531 865.996094 669.996094 865.480469 670.726562 C 865.988281 675.636719 866.523438 680.546875 867.042969 685.460938 C 869.164062 684.738281 871.394531 684.3125 873.449219 683.421875 C 882.777344 675.625 883.101562 675.957031 926.5625 651.628906 C 926.554688 650.789062 926.554688 649.953125 926.5625 649.125 C 926.558594 649.125 911.609375 644.296875 911.609375 644.296875 C 910.679688 643.339844 910.886719 641.875 910.875 640.65625 C 899.527344 632.332031 880.203125 621.890625 880.203125 621.890625 C 874.960938 624.882812 869.753906 627.933594 864.535156 630.964844 M 1026.527344 631.976562 C 1024.738281 632.167969 1022.949219 632.339844 1021.167969 632.53125 C 1021.0625 633.460938 1020.953125 634.394531 1020.855469 635.335938 C 1025.5 636.039062 1034.078125 636.980469 1038.515625 635.382812 C 1037.324219 634.910156 1027.8125 631.804688 1026.527344 631.976562 M 952.148438 648.121094 C 950.253906 649.328125 948.253906 650.40625 946.566406 651.90625 C 949.546875 653.898438 957.078125 658.578125 959.777344 661.289062 C 960.808594 660.160156 961.851562 658.578125 963.578125 658.6875 C 969.335938 645.253906 976.382812 634.714844 976.382812 634.714844 C 968.242188 639.066406 960.097656 643.421875 952.148438 648.121094 M 984.691406 639.242188 C 981.542969 642.953125 974.839844 657.191406 972.359375 662.460938 C 974.636719 663.976562 973.34375 670.886719 972.617188 674.808594 C 979.46875 681.90625 986.386719 688.9375 993.203125 696.066406 C 993.25 694.09375 994.4375 692.429688 995.773438 691.085938 C 996.503906 691.296875 997.242188 691.507812 997.984375 691.722656 C 1003.46875 664.902344 1002.105469 676.222656 1003.628906 639.730469 C 1003.207031 639.515625 1002.789062 639.304688 1002.382812 639.105469 C 996.609375 644.601562 991.269531 642.332031 987.640625 635.355469 C 986.652344 636.648438 985.710938 637.976562 984.691406 639.242188 M 844.199219 644.082031 C 843.558594 647.675781 843.195312 651.390625 841.742188 654.773438 C 845.574219 654.097656 849.421875 653.519531 853.261719 652.882812 C 853.257812 651.234375 853.257812 649.59375 853.261719 647.949219 C 851.984375 647.902344 850.953125 647.09375 850.382812 646 C 849.144531 646.09375 847.914062 646.199219 846.679688 646.308594 C 846.59375 644.15625 846.917969 641.964844 846.390625 639.855469 C 844.800781 640.574219 844.386719 642.507812 844.199219 644.082031 M 1041.671875 644.488281 C 1045.261719 646.476562 1048.882812 648.40625 1052.488281 650.375 C 1052.703125 647.867188 1052.910156 645.359375 1053.121094 642.855469 C 1049.308594 643.429688 1045.460938 643.789062 1041.671875 644.488281 M 1018.035156 644.746094 C 1018.027344 645.363281 1018.023438 645.984375 1018.035156 646.617188 C 1028.996094 654.554688 1039.960938 662.484375 1050.921875 670.417969 C 1051.453125 664.679688 1051.96875 658.9375 1052.492188 653.199219 C 1047.785156 650.304688 1043.140625 647.296875 1038.394531 644.484375 C 1031.613281 644.457031 1024.820312 644.664062 1018.035156 644.746094 M 1058.761719 645.679688 C 1058.546875 648.183594 1058.34375 650.6875 1058.132812 653.191406 C 1064.59375 656.851562 1071.074219 660.492188 1077.542969 664.15625 C 1079.328125 662.917969 1081.101562 661.65625 1082.875 660.398438 C 1074.839844 655.492188 1066.800781 650.585938 1058.761719 645.679688 M 437.226562 662.277344 C 437.425781 662.890625 437.636719 663.519531 437.835938 664.144531 C 445.457031 667.402344 453.089844 670.625 460.714844 673.867188 C 460.289062 668.375 464.003906 675.761719 446.621094 645.992188 C 443.492188 651.417969 440.359375 656.847656 437.226562 662.277344 M 1017.6875 648.5 C 1017.140625 665.742188 1016.664062 682.988281 1016.097656 700.230469 C 1024.429688 706.148438 1030.890625 698.277344 1054.648438 682.015625 C 1046.414062 675.675781 1044 675.105469 1048.664062 671.960938 C 1038.335938 664.144531 1028.011719 656.324219 1017.6875 648.496094 M 1058.097656 656.019531 C 1057.675781 661.859375 1057.261719 667.707031 1056.839844 673.550781 C 1059.96875 673.507812 1063.109375 673.636719 1066.234375 673.492188 C 1075.71875 668.707031 1073.941406 668.375 1075.949219 665.730469 C 1070 662.488281 1064.050781 659.25 1058.097656 656.019531 M 838.742188 661.894531 C 834.605469 671.160156 824.941406 686.359375 817.761719 698.113281 C 821.28125 694.597656 840.375 666.144531 843.195312 661.960938 C 842.460938 661.335938 841.734375 660.710938 841.015625 660.085938 C 840.253906 660.679688 839.300781 661.09375 838.742188 661.894531 M 949.078125 662.871094 C 949.375 664.011719 949.679688 665.148438 950.011719 666.285156 C 953.425781 666.894531 954.03125 669.433594 953.765625 672.898438 C 951.996094 674.671875 952.59375 674.578125 953.65625 675.183594 C 952.34375 676.890625 953.136719 676.472656 953.714844 677.070312 C 955.257812 675.585938 958.660156 673.273438 957.261719 671.796875 C 957.289062 670.84375 957.617188 669.859375 957.40625 668.9375 C 955.710938 665.8125 952.578125 663.519531 949.078125 662.871094 M 1083.167969 669.484375 C 1082.351562 670.429688 1081.417969 671.285156 1080.714844 672.324219 C 1080.351562 673.539062 1080.261719 674.816406 1080.023438 676.0625 C 1083.78125 675.53125 1087.546875 675.023438 1091.304688 674.488281 C 1091.503906 674.066406 1091.710938 673.652344 1091.925781 673.242188 C 1089.007812 671.984375 1086.082031 670.742188 1083.167969 669.484375 Z M 1083.167969 669.484375 " fill-opacity="1" fill-rule="nonzero"/></svg>