<svg xmlns="http://www.w3.org/2000/svg" xmlns:xlink="http://www.w3.org/1999/xlink" width="500" zoomAndPan="magnify" viewBox="0 0 1440 809.999993" height="500" preserveAspectRatio="xMidYMid meet" version="1.0"><path fill="#fae0ce" d="M 221.59375 153.160156 C 219.292969 150.894531 217.144531 148.523438 215.140625 145.925781 C 212.507812 142.585938 210.28125 139.136719 208.277344 135.613281 C 202.046875 155.011719 202.976562 175.15625 198.414062 195.816406 C 192.257812 223.375 180.574219 249.339844 174.636719 276.902344 C 172.003906 289.070312 170.003906 301.382812 168.628906 313.773438 C 177.644531 291.21875 188.621094 269.519531 196.113281 246.078125 C 205.421875 216.921875 209.429688 182.5 221.59375 153.160156 Z M 245.554688 171 C 241.992188 168.996094 238.542969 166.921875 235.28125 164.621094 C 223.449219 195.890625 220.59375 234.097656 209.132812 262.101562 C 198.042969 289.441406 181.796875 317 175.566406 346.117188 C 179.089844 338.441406 182.945312 331.019531 186.691406 323.9375 C 199.117188 300.457031 215.511719 276.902344 223.300781 251.34375 C 231.535156 224.75 236.542969 197.335938 245.554688 171 Z M 254.457031 49.667969 C 255.9375 48.332031 257.496094 47.035156 259.089844 45.808594 C 247.777344 49.558594 237.394531 55.195312 229.902344 64.355469 C 216.105469 81.234375 213.136719 97.183594 216.996094 111.355469 C 217.144531 111.726562 217.21875 112.097656 217.292969 112.429688 C 219.738281 120.664062 224.449219 128.269531 230.679688 135.132812 C 235.761719 126.75 241.917969 119.105469 249.523438 112.503906 C 235.28125 92.992188 232.3125 69.773438 254.457031 49.667969 Z M 271.035156 182.425781 C 267.882812 181.3125 264.804688 180.164062 261.800781 178.863281 C 248.074219 219.519531 241.546875 260.804688 220.519531 299.082031 C 203.347656 330.351562 174.933594 371.15625 177.71875 409.363281 C 180.722656 423.53125 184.617188 437.664062 187.398438 451.945312 C 190.402344 458.917969 193.738281 465.707031 197.558594 472.347656 C 222.964844 516.710938 256.644531 546.421875 293.882812 577.988281 C 252.082031 522.238281 226.191406 459.699219 236.132812 384.621094 C 244.292969 322.636719 245.40625 244.1875 271.035156 182.425781 Z M 278.710938 165.84375 C 282.347656 158.832031 286.5 152.230469 290.953125 145.851562 C 283.125 141.84375 275.632812 137.28125 268.660156 131.902344 C 266.101562 129.902344 263.691406 127.75 261.390625 125.597656 C 254.085938 131.570312 248.296875 138.691406 243.550781 146.890625 C 254.160156 154.863281 266.546875 161.320312 278.710938 165.84375 Z M 299.964844 242.925781 C 302.300781 225.824219 302.746094 209.652344 306.453125 193.109375 C 300.445312 191.585938 294.363281 189.957031 288.132812 188.101562 C 277.859375 214.4375 273.554688 243.777344 269.808594 270.96875 C 264.730469 308.765625 258.238281 346.75 254.011719 384.621094 C 248.371094 435.289062 258.089844 479.023438 277.96875 518.75 C 271.40625 496.273438 267.398438 473.347656 266.25 451.613281 C 263.875 405.875 263.023438 357.28125 278.785156 313.476562 C 287.058594 290.367188 296.664062 267.367188 299.964844 242.925781 Z M 384.304688 638.96875 C 384.675781 639.117188 384.972656 639.265625 385.308594 639.378906 C 371.140625 612.410156 362.125 578.988281 357.195312 551.058594 C 350.109375 511.664062 349.257812 471.789062 353.855469 431.914062 C 362.496094 356.839844 382.527344 283.355469 390.757812 208.277344 C 368.285156 205.421875 345.882812 202.046875 323.851562 197.1875 C 314.464844 233.6875 313.242188 270.113281 300.148438 306.6875 C 284.71875 349.679688 281.121094 393.855469 283.496094 439.371094 C 286.722656 500.835938 307.753906 569.421875 350.035156 616.121094 C 352.632812 618.792969 355.191406 621.5 357.859375 624.132812 C 368.023438 630.140625 377.148438 634.890625 384.304688 638.96875 Z M 392.539062 190.25 C 393.058594 184.019531 393.46875 177.789062 393.765625 171.558594 C 364.871094 168.476562 334.496094 163.691406 307.308594 153.160156 C 302.96875 158.90625 299.183594 164.992188 295.808594 171.261719 C 327.375 180.792969 359.863281 185.949219 392.539062 190.25 Z M 424.324219 212.285156 C 419.023438 211.691406 413.644531 211.0625 408.304688 210.429688 C 400.996094 273.601562 385.382812 335.433594 376.070312 398.417969 C 369.582031 443.007812 364.351562 490.1875 372.363281 534.921875 C 378.890625 571.386719 389.757812 617.789062 411.457031 648.207031 C 411.566406 648.28125 411.714844 648.28125 411.863281 648.28125 C 355.820312 507.992188 405.929688 355.910156 424.324219 212.285156 Z M 484.375 420.34375 C 494.386719 354.5 506.628906 288.996094 511.191406 222.597656 C 492.460938 220.816406 473.617188 218.664062 454.886719 216.144531 C 450.585938 215.511719 446.28125 214.992188 441.90625 214.4375 C 423.324219 357.210938 370.804688 512.296875 432.261719 650.988281 C 437.640625 651.46875 442.980469 651.988281 448.285156 652.433594 C 449.433594 652.507812 450.511719 652.546875 451.585938 652.621094 C 463.679688 618.496094 462.230469 578.285156 467.054688 542.566406 C 472.542969 501.835938 478.21875 461.035156 484.375 420.34375 Z M 512.265625 205.421875 C 512.710938 197.261719 512.96875 189.101562 513.042969 180.941406 C 482 179.347656 450.957031 176.785156 420.652344 174.152344 C 417.648438 173.855469 414.570312 173.558594 411.53125 173.261719 C 411.160156 179.71875 410.640625 186.097656 410.082031 192.476562 C 422.546875 194.035156 434.894531 195.519531 447.285156 197.1875 C 467.980469 199.96875 489.863281 202.902344 512.265625 205.421875 Z M 523.652344 446.382812 C 524.652344 382.246094 532.035156 314.847656 526.730469 250.34375 C 520.871094 308.839844 510.113281 366.703125 501.621094 425.125 C 495.167969 469.566406 488.15625 514.003906 482.925781 558.589844 C 479.21875 590.007812 479.847656 623.503906 470.058594 653.84375 C 474.0625 654.066406 478.144531 654.214844 482.148438 654.363281 C 482.222656 654.214844 482.296875 654.140625 482.371094 654.066406 C 503.550781 628.730469 501.175781 595.460938 507.480469 564.96875 C 515.492188 525.945312 523.09375 486.332031 523.652344 446.382812 Z M 630.46875 209.578125 C 629.914062 199.96875 629.320312 190.4375 628.835938 180.867188 C 628.835938 180.792969 628.835938 180.71875 628.835938 180.644531 C 596.644531 182.945312 563.855469 183.09375 530.957031 181.792969 C 530.808594 190.324219 530.511719 198.746094 530.105469 207.203125 C 563.300781 210.28125 597.273438 211.765625 630.46875 209.578125 Z M 634.921875 438.296875 C 639 367.074219 635.402344 296.078125 631.359375 225.007812 C 601.429688 227.011719 571.609375 226.75 541.824219 224.933594 C 546.609375 263.027344 544.753906 302.386719 543.976562 340.738281 C 543.050781 384.769531 544.273438 429.761719 539.972656 473.570312 C 535.890625 514.929688 526.136719 555.175781 520.796875 596.3125 C 518.125 616.417969 514.566406 634.816406 505.253906 651.617188 C 509.964844 650.988281 515.195312 650.359375 520.980469 649.691406 C 527.101562 648.984375 533.664062 648.28125 540.824219 647.613281 C 546.90625 646.832031 553.359375 645.757812 560.074219 644.832031 C 620.828125 598.722656 630.839844 508.996094 634.921875 438.296875 Z M 666.558594 482.363281 C 682.136719 402.425781 676.421875 301.160156 650.089844 223.523438 C 649.941406 223.523438 649.792969 223.597656 649.644531 223.597656 C 649.535156 223.597656 649.3125 223.597656 649.164062 223.597656 C 654.246094 313.402344 658.546875 403.167969 647.457031 492.824219 C 643.304688 526.390625 636.144531 560.886719 622.382812 591.640625 C 645.15625 557.03125 660.328125 514.152344 666.558594 482.363281 Z M 719.929688 145.664062 C 786.0625 118.253906 720.003906 73.445312 682.285156 60.980469 C 653.613281 51.558594 624.277344 45.585938 594.863281 39.246094 C 528.585938 24.777344 461.378906 24.40625 393.988281 29.230469 C 358.046875 31.714844 319.695312 34.496094 286.722656 50.742188 C 271.628906 58.199219 245.40625 72.851562 258.015625 93.921875 C 270.328125 114.582031 291.433594 127.824219 313.835938 135.613281 C 356.785156 150.597656 402.21875 155.753906 447.359375 158.054688 C 534.035156 162.542969 637.070312 180.015625 719.929688 145.664062 Z M 730.945312 186.726562 C 732.316406 186.097656 733.691406 185.429688 735.027344 184.800781 C 732.019531 178.160156 728.238281 171.707031 723.304688 165.695312 C 722.859375 165.25 722.636719 164.84375 722.378906 164.324219 C 698.382812 173.632812 670.972656 177.007812 646.457031 179.308594 C 646.566406 179.792969 646.640625 180.273438 646.714844 180.867188 C 647.234375 189.882812 647.714844 198.894531 648.234375 207.910156 C 675.421875 204.902344 701.832031 198.96875 726.308594 188.804688 C 727.535156 187.582031 729.164062 186.949219 730.945312 186.726562 Z M 744.484375 438.519531 C 747.339844 387.402344 745.96875 336.363281 744.855469 285.285156 C 744.632812 275.753906 744.855469 265.960938 744.929688 256.019531 C 737.472656 240.253906 730.167969 224.527344 726.382812 207.835938 C 707.429688 214.363281 687.367188 218.589844 668.117188 221.375 C 683.507812 268.59375 687.957031 322.710938 690.519531 371.859375 C 693.039062 420.417969 692.1875 471.34375 675.199219 517.601562 C 661.699219 554.433594 642.300781 600.394531 612.445312 632.183594 C 615.523438 630.957031 618.601562 629.734375 621.605469 628.582031 C 644.933594 613.636719 666.890625 596.796875 686.660156 577.914062 C 720.078125 539.1875 741.628906 490.671875 744.484375 438.519531 Z M 766.8125 443.710938 C 778.273438 395.339844 777.53125 347.75 763.027344 300.457031 C 764.4375 349.976562 767.738281 400.089844 761.582031 449.089844 C 760.875 455.097656 759.875 461.109375 758.726562 467.042969 C 759.097656 467.117188 759.429688 467.265625 759.726562 467.414062 C 762.433594 459.699219 764.882812 451.871094 766.8125 443.710938 Z M 750.714844 176.859375 C 773.375 163.765625 799.152344 141.992188 779.457031 113.578125 C 773.117188 104.417969 765.660156 96.21875 757.351562 88.914062 C 769.59375 106.011719 774.972656 126.675781 757.203125 143.292969 C 751.640625 148.523438 745.410156 152.9375 738.769531 156.757812 C 743.628906 163.171875 747.5625 169.925781 750.714844 176.859375 Z M 780.90625 616.789062 C 782.832031 602.542969 781.203125 591.453125 775.972656 581.921875 C 775.304688 581.066406 774.824219 580.140625 774.191406 579.285156 C 773.820312 578.765625 773.523438 578.359375 773.191406 577.839844 C 772.523438 576.839844 771.816406 575.835938 771.1875 574.835938 C 766.738281 569.421875 761.0625 564.375 753.71875 559.515625 C 753.273438 559.292969 752.976562 558.960938 752.644531 558.664062 C 734.691406 575.207031 715.144531 589.859375 696.042969 605.105469 C 695.117188 605.882812 694.226562 606.625 693.300781 607.328125 C 697.824219 606.773438 702.199219 606.253906 706.429688 606.253906 C 713.066406 606.105469 719.300781 606.847656 724.789062 608.703125 C 730.242188 610.40625 734.765625 613.636719 737.324219 617.121094 C 741.960938 624.652344 740.179688 629.214844 739.105469 629.363281 C 737.621094 629.734375 735.953125 625.800781 731.539062 622.722656 C 727.164062 619.71875 718.855469 618.71875 707.542969 620.71875 C 689.886719 623.652344 667.113281 632.257812 641.375 642.605469 C 636.996094 644.90625 632.546875 646.90625 627.984375 648.761719 C 621.753906 652.285156 615.449219 655.550781 608.882812 658.554688 C 605.878906 659.929688 602.949219 659.59375 600.648438 658.296875 C 553.0625 672.167969 502.957031 674.949219 453.589844 670.796875 C 447.582031 671.648438 439.867188 672.316406 430.558594 672.613281 C 419.097656 672.613281 405.296875 672.316406 390.128906 669.609375 C 382.527344 668.609375 374.738281 666.382812 366.578125 664.378906 C 358.492188 661.929688 350.035156 659.296875 342.320312 656.144531 C 340.316406 655.367188 338.316406 654.625 336.386719 653.84375 L 334.867188 653.289062 L 332.789062 652.359375 L 330.082031 651.0625 C 326.519531 649.46875 322.921875 647.910156 319.363281 646.464844 C 312.203125 643.679688 305.195312 641.121094 298.445312 639.191406 C 284.980469 635.113281 272.703125 633.144531 263.097656 633.738281 C 258.164062 633.960938 254.234375 635.113281 250.859375 636.375 C 249.226562 637.191406 247.925781 638.191406 246.480469 638.894531 C 245.144531 639.75 244.402344 640.75 243.367188 641.53125 C 242.773438 641.976562 242.289062 642.382812 241.84375 642.753906 C 241.398438 643.273438 241.066406 643.902344 240.695312 644.3125 C 239.917969 645.351562 239.285156 646.203125 238.691406 646.832031 C 237.46875 648.132812 236.46875 648.6875 235.835938 648.390625 C 235.207031 648.207031 234.835938 647.128906 234.835938 645.351562 C 234.835938 644.460938 234.835938 643.382812 234.984375 642.121094 C 235.058594 641.53125 235.132812 640.824219 235.28125 640.121094 C 235.613281 639.378906 235.984375 638.523438 236.355469 637.671875 C 237.207031 636.113281 237.988281 633.8125 239.472656 632.109375 C 240.992188 630.4375 242.550781 628.4375 244.625 626.730469 C 248.929688 623.578125 254.457031 620.792969 260.722656 619.421875 C 273.261719 616.566406 288.019531 617.417969 303.078125 620.867188 C 310.199219 622.351562 317.285156 624.578125 324.554688 627.0625 C 323.628906 626.359375 322.773438 625.652344 321.921875 624.949219 C 313.464844 618.71875 306.269531 612.855469 300.59375 607.921875 C 297.21875 605.105469 294.4375 602.542969 292.359375 600.246094 C 276.414062 587.300781 260.613281 574.207031 245.703125 560.445312 C 245.21875 560.960938 244.625 561.445312 243.921875 561.964844 C 177.605469 605.328125 178.867188 705.664062 253.304688 741.015625 C 269.734375 748.804688 287.355469 755.40625 305.601562 760.96875 C 305.121094 760.5625 304.527344 760.191406 304.042969 759.78125 C 291.65625 749.621094 281.566406 738.378906 275.746094 726.472656 C 272.742188 720.761719 271.332031 714.527344 271.109375 709.113281 C 271.035156 703.585938 272.109375 698.875 274.113281 695.277344 C 275.746094 691.421875 277.894531 690.34375 279.269531 688.972656 C 280.714844 687.859375 281.714844 687.414062 282.347656 687.785156 C 282.976562 688.117188 283.125 689.269531 282.828125 691.050781 C 282.71875 692.792969 281.269531 695.574219 281.566406 698.207031 C 280.972656 703.214844 282.347656 711.191406 288.355469 719.351562 C 294.140625 727.550781 303.746094 736.378906 315.617188 744.796875 C 321.476562 749.101562 328.003906 753.253906 334.867188 757.335938 C 338.316406 759.414062 341.875 761.414062 345.472656 763.269531 L 346.808594 764.011719 L 347.550781 764.417969 L 350.480469 765.644531 C 352.484375 766.496094 354.484375 767.277344 356.5625 768.128906 C 358.566406 768.980469 360.570312 769.871094 362.570312 770.726562 C 364.5 771.355469 366.429688 771.988281 368.359375 772.65625 C 372.140625 773.953125 375.8125 775.363281 379.667969 776.4375 C 383.675781 777.589844 387.679688 778.738281 391.613281 779.8125 C 411.382812 782.667969 430.890625 784.671875 449.582031 785.75 C 479.21875 787.453125 508.332031 787.15625 537.042969 784.449219 C 529.511719 781.59375 522.574219 778.253906 517.050781 773.582031 C 513.710938 771.132812 511.191406 767.90625 508.628906 765.273438 C 506.554688 762.121094 504.402344 759.339844 503.03125 756.332031 C 501.804688 753.328125 500.617188 750.546875 499.804688 747.949219 C 499.246094 745.167969 498.800781 742.609375 498.542969 740.382812 C 498.097656 738.082031 498.246094 736.304688 498.394531 734.707031 C 498.542969 733.148438 498.765625 731.777344 498.949219 730.628906 C 499.320312 728.4375 499.878906 727.289062 500.617188 727.140625 C 501.324219 727.066406 502.101562 728.140625 503.03125 730.144531 C 503.476562 731.222656 503.957031 732.519531 504.476562 734.003906 C 504.957031 735.523438 505.476562 737.378906 506.40625 738.9375 C 507.183594 740.644531 508.035156 742.460938 508.890625 744.464844 C 510.113281 746.316406 511.488281 748.320312 512.859375 750.472656 C 514.34375 752.550781 516.417969 754.332031 518.199219 756.480469 C 520.648438 758.113281 522.648438 760.265625 525.507812 761.785156 C 530.808594 765.199219 537.597656 767.5 545.050781 769.351562 C 552.691406 770.949219 561.148438 771.726562 570.160156 771.800781 C 579.175781 771.652344 588.707031 770.800781 598.5 769.128906 C 603.355469 768.351562 608.363281 767.203125 613.1875 765.976562 C 618.304688 764.566406 623.980469 763.269531 628.617188 761.636719 C 648.53125 755.40625 666.484375 745.726562 680.875 734.929688 C 695.117188 723.839844 705.910156 711.375 713.511719 699.878906 C 728.535156 676.546875 732.316406 658.480469 735.542969 659.148438 C 737.84375 659.296875 739.476562 678.882812 726.160156 707.035156 C 722.5625 714.308594 717.777344 722.058594 711.769531 729.699219 C 732.800781 717.460938 752.273438 702.214844 764.585938 681.886719 C 777.269531 661.152344 777.828125 640.046875 780.90625 616.789062 Z M 791.550781 348.972656 C 797.226562 390.257812 790.769531 435.289062 776.378906 474.277344 C 765.734375 503.28125 750.9375 529.246094 732.949219 552.652344 C 743.628906 543.863281 753.71875 534.476562 762.210938 523.460938 C 836.949219 426.90625 801.785156 292.296875 771.449219 185.246094 C 766.738281 188.507812 761.878906 191.585938 756.796875 194.371094 C 761.433594 211.988281 762.359375 230.683594 762.433594 249.785156 C 766.8125 258.429688 770.964844 267.257812 774.042969 276.269531 C 782.054688 300.160156 788.210938 323.9375 791.550781 348.972656 Z M 819.328125 311.769531 C 835.277344 306.613281 828.34375 282.6875 827.042969 270.335938 C 826.265625 262.433594 826.117188 253.644531 822.964844 246.261719 C 819.773438 238.621094 811.875 241.550781 805.605469 243.703125 C 810.949219 265.8125 815.804688 288.734375 819.328125 311.769531 Z M 861.984375 319.410156 C 862.207031 274.195312 863.207031 233.539062 861.128906 190.808594 C 860.460938 179.160156 859.90625 167.847656 860.277344 156.757812 C 854.972656 153.898438 850.226562 150.597656 846.292969 146.890625 C 842.882812 161.617188 839.507812 176.15625 839.507812 191.585938 C 839.507812 206.203125 839.210938 220.074219 835.09375 234.097656 C 840.027344 240.773438 842.882812 250.269531 844.105469 261.730469 C 846.738281 286.285156 854.195312 319.1875 824.113281 329.09375 C 823.707031 329.167969 823.335938 329.203125 822.964844 329.277344 C 822.78125 329.871094 822.632812 330.277344 822.632812 330.277344 C 822.335938 330.277344 822.113281 330.242188 821.816406 330.242188 C 822.335938 334.324219 822.78125 338.402344 823.113281 342.445312 C 830.199219 328.089844 845.8125 319.1875 861.984375 319.410156 Z M 865.210938 487.332031 C 864.058594 454.394531 860.832031 421.492188 866.917969 389.035156 C 864.617188 390 862.28125 390.851562 859.609375 391.335938 C 848.667969 393.484375 838.652344 390.628906 831.273438 384.621094 C 826.96875 403.425781 827.042969 422.457031 827.042969 441.78125 C 827.933594 442.523438 828.640625 443.449219 829.121094 444.75 C 837.429688 463.703125 850.039062 477.28125 865.210938 487.332031 Z M 855.269531 374.011719 C 872.441406 371.824219 874.851562 351.273438 868.472656 338.179688 C 866.988281 337.585938 865.285156 337.179688 863.058594 337.179688 C 853.675781 337.03125 841.65625 341.40625 838.578125 351.347656 C 834.574219 363.847656 840.804688 375.902344 855.269531 374.011719 Z M 870.367188 110.351562 C 870.847656 109.386719 871.441406 108.648438 872.070312 108.015625 C 865.433594 102.230469 859.535156 95.402344 855.046875 87.167969 C 854.304688 85.984375 853.972656 84.832031 853.453125 83.683594 C 842.101562 102.007812 846.515625 122.40625 862.355469 135.835938 C 863.835938 127.339844 866.359375 118.882812 870.367188 110.351562 Z M 908.492188 325.570312 C 908.566406 273.265625 908.863281 223.820312 911.125 172.929688 C 899.40625 170.480469 887.871094 167.476562 876.78125 163.691406 C 876.152344 187.023438 879.378906 211.507812 879.601562 232.539062 C 879.785156 258.726562 879.859375 306.390625 879.859375 324.160156 C 880.082031 324.269531 880.304688 324.417969 880.601562 324.640625 C 880.675781 324.640625 880.675781 324.714844 880.714844 324.789062 C 884.164062 327.164062 886.871094 330.09375 888.726562 333.582031 C 889.464844 332.171875 890.171875 330.722656 890.949219 329.277344 C 892.617188 326.125 895.253906 324.789062 897.960938 324.863281 C 899.777344 323.789062 901.964844 323.417969 904.636719 324.269531 C 905.933594 324.714844 907.195312 325.125 908.492188 325.570312 Z M 910.199219 505.992188 C 910.050781 475.277344 909.496094 444.675781 909.421875 413.960938 C 904.414062 411.808594 899.628906 409.4375 895.253906 406.65625 C 890.320312 403.425781 886.609375 399.792969 883.792969 395.785156 C 878.152344 429.207031 882.714844 463.40625 883.382812 497.199219 C 891.878906 500.910156 900.925781 503.765625 910.199219 505.992188 Z M 915.503906 154.976562 C 915.207031 146.445312 916.023438 137.988281 917.804688 129.753906 C 906.640625 127.265625 895.957031 123.558594 886.3125 118.105469 C 886.164062 118.585938 886.015625 119.105469 885.792969 119.589844 C 882.011719 127.636719 879.675781 136.28125 878.375 145.441406 C 880.082031 146.074219 881.863281 146.816406 883.753906 147.371094 C 894.25 150.597656 904.859375 153.011719 915.503906 154.976562 Z M 945.210938 404.503906 C 944.617188 388.480469 944.285156 372.230469 944.285156 355.578125 C 944.285156 355.503906 944.285156 355.355469 944.285156 355.207031 C 929.96875 351.421875 917.285156 347.269531 903.78125 342.890625 C 897.699219 354.761719 889.242188 373.605469 897.03125 384.398438 C 904.339844 394.636719 919.507812 398.789062 931.042969 401.574219 C 935.753906 402.722656 940.390625 403.648438 945.210938 404.503906 Z M 944.839844 336.660156 C 945.433594 283.914062 945.992188 231.164062 946.066406 178.417969 C 940.539062 177.863281 935.050781 177.082031 929.597656 176.195312 C 929.375 176.34375 929.117188 176.417969 928.894531 176.492188 C 926.890625 224.15625 926.519531 306.761719 926.371094 331.242188 C 932.527344 333.171875 938.683594 334.878906 944.839844 336.660156 Z M 954.152344 512.554688 C 950.554688 482.4375 947.84375 453.316406 946.289062 423.902344 C 939.835938 422.976562 933.527344 421.601562 927.371094 419.972656 C 927.519531 449.867188 928.039062 479.726562 928.113281 509.550781 C 936.679688 510.925781 945.433594 511.851562 954.152344 512.554688 Z M 989.71875 347.675781 C 988.199219 292.148438 978.777344 236.46875 982.636719 181.3125 C 976.40625 181.015625 970.171875 180.644531 963.941406 180.164062 C 963.867188 233.910156 963.238281 287.695312 962.753906 341.445312 C 971.695312 343.742188 980.632812 345.820312 989.71875 347.675781 Z M 984.082031 408.210938 C 982.414062 395.636719 987.347656 378.6875 993.726562 366.628906 C 983.265625 364.703125 972.917969 362.4375 962.605469 359.84375 C 962.53125 375.828125 962.792969 391.558594 963.460938 407.171875 C 970.246094 407.804688 977.183594 408.175781 984.082031 408.210938 Z M 984.488281 162.394531 C 985.640625 153.605469 987.199219 144.847656 989.273438 136.058594 C 967.6875 135.6875 948.625 134.277344 935.421875 132.683594 C 935.347656 133.203125 935.199219 133.648438 935.125 134.128906 C 935.273438 134.761719 935.347656 135.429688 935.347656 136.132812 C 935.421875 143.441406 935.457031 150.671875 935.199219 157.832031 C 939.351562 158.316406 943.394531 158.832031 947.550781 159.242188 C 959.863281 160.464844 972.175781 161.46875 984.488281 162.394531 Z M 991.09375 514.078125 C 991.871094 484.734375 987.9375 455.46875 990.5 426.203125 C 982.117188 426.425781 973.324219 426.277344 964.3125 425.683594 C 965.871094 454.914062 968.617188 483.882812 972.175781 513.667969 C 978.554688 513.855469 984.859375 514.003906 991.09375 514.078125 Z M 1017.683594 351.199219 C 1021.839844 353.425781 1024.917969 356.988281 1027.21875 361.214844 C 1021.691406 301.234375 1007.113281 242.480469 1006.113281 182.089844 C 1004.183594 182.015625 1002.292969 182.015625 1000.363281 181.941406 C 996.097656 238.066406 1006.519531 294.855469 1007.671875 351.199219 C 1008.042969 351.273438 1008.339844 351.421875 1008.671875 351.496094 C 1011.121094 349.828125 1014.347656 349.34375 1017.683594 351.199219 Z M 1009.894531 517.230469 C 1021.617188 517.230469 1033.707031 516.597656 1045.875 516.785156 C 1037.082031 478.097656 1033.449219 436.550781 1030.222656 396.789062 C 1026.996094 409.882812 1019.390625 422.121094 1008.523438 425.535156 C 1005.519531 455.617188 1009.75 481.433594 1008.96875 517.230469 C 1009.265625 517.230469 1009.527344 517.230469 1009.894531 517.230469 Z M 1054.03125 163.765625 C 1054.105469 153.898438 1054.179688 143.921875 1054.253906 134.054688 C 1038.605469 135.429688 1022.691406 136.058594 1007.523438 136.207031 C 1007.523438 136.355469 1007.523438 136.578125 1007.449219 136.726562 C 1005.222656 145.589844 1003.515625 154.53125 1002.292969 163.394531 C 1014.605469 164.0625 1026.996094 164.398438 1039.382812 164.175781 C 1044.09375 164.0625 1049.027344 163.988281 1054.03125 163.765625 Z M 1047.617188 77.078125 C 1054.960938 75.820312 1080.441406 69.660156 1071.28125 57.273438 C 1060.5625 42.730469 1040.457031 40.394531 1023.769531 39.652344 C 996.65625 38.503906 962.679688 39.320312 943.691406 61.574219 C 931.972656 82.902344 1034.003906 79.453125 1047.617188 77.078125 Z M 1064.195312 515.078125 C 1069.722656 515.003906 1075.210938 514.855469 1080.664062 514.597656 C 1078.511719 478.652344 1071.578125 442.933594 1065.492188 407.097656 C 1057.890625 394.5625 1054.476562 380.761719 1059.707031 367.855469 C 1058.261719 356.503906 1057.039062 345.117188 1056.40625 333.65625 C 1053.699219 282.984375 1053.550781 232.390625 1053.882812 181.71875 C 1051.546875 181.792969 1049.25 181.867188 1047.023438 181.867188 C 1039.457031 182.015625 1031.78125 182.164062 1023.992188 182.164062 C 1024.992188 238.957031 1039.234375 293.855469 1044.167969 350.273438 C 1049.027344 404.949219 1051.472656 461.476562 1064.195312 515.078125 Z M 1075.65625 348.75 C 1086.414062 340.589844 1099.355469 333.507812 1113.152344 328.128906 C 1101.988281 287.4375 1086.042969 247.191406 1071.429688 206.683594 C 1071.207031 249.082031 1071.652344 291.441406 1074.285156 333.65625 C 1074.65625 338.664062 1075.136719 343.742188 1075.65625 348.75 Z M 1089.378906 409.101562 C 1099.429688 398.121094 1091.382812 378.316406 1080.441406 369.375 C 1079.660156 370.453125 1079.03125 371.527344 1078.4375 372.601562 C 1079.734375 382.097656 1081.109375 391.632812 1082.667969 401.089844 C 1084.59375 403.796875 1086.894531 406.433594 1089.378906 409.101562 Z M 1126.953125 404.28125 C 1125.617188 384.695312 1122.316406 365.371094 1117.753906 346.042969 C 1109.296875 349.046875 1101.136719 352.832031 1093.683594 357.617188 C 1107.144531 370.675781 1115.15625 391.484375 1110.074219 408.433594 C 1115.675781 407.359375 1121.3125 406.023438 1126.953125 404.28125 Z M 1123.796875 152.863281 C 1122.613281 142.511719 1121.238281 132.199219 1119.535156 122.039062 C 1105.363281 126.636719 1089.121094 129.828125 1072.167969 132.050781 C 1072.097656 142.363281 1072.023438 152.601562 1071.875 162.839844 C 1089.527344 161.542969 1107.554688 158.90625 1123.796875 152.863281 Z M 1112.707031 509.515625 C 1123.539062 479.726562 1127.765625 451.167969 1127.617188 422.605469 C 1116.601562 426.054688 1105.214844 428.910156 1093.199219 429.542969 C 1091.269531 430.578125 1089.34375 431.359375 1087.597656 431.359375 C 1087.523438 431.359375 1087.523438 431.359375 1087.449219 431.359375 C 1092.273438 459.996094 1096.6875 486.109375 1098.464844 514.152344 C 1101.988281 513.707031 1105.550781 512.148438 1109.074219 511.554688 C 1110.148438 511.21875 1111.300781 510.851562 1112.523438 510.515625 C 1112.597656 510.144531 1112.671875 509.847656 1112.707031 509.515625 Z M 1129.917969 322.5625 C 1130.625 322.339844 1131.328125 322.191406 1132.03125 322.007812 C 1130.957031 272.671875 1130.625 220.742188 1125.800781 170.480469 C 1111.523438 175.339844 1096.203125 178.234375 1080.960938 179.867188 C 1097.207031 227.679688 1116.601562 274.824219 1129.917969 322.5625 Z M 1149.871094 318.335938 C 1152.023438 318.039062 1154.175781 317.851562 1156.214844 317.703125 C 1155.957031 264.402344 1153.582031 211.0625 1152.949219 157.832031 C 1149.722656 159.835938 1146.347656 161.691406 1142.9375 163.394531 C 1148.054688 214.695312 1148.796875 267.664062 1149.871094 318.335938 Z M 1166.191406 406.023438 C 1165.042969 406.582031 1163.890625 407.097656 1162.742188 407.65625 C 1156.957031 410.4375 1151.132812 413.109375 1145.421875 415.519531 C 1146.273438 444.601562 1142.9375 474.054688 1133.332031 504.359375 C 1136.707031 503.429688 1140.265625 502.539062 1143.9375 501.613281 C 1147.648438 500.054688 1151.097656 498.386719 1154.433594 496.53125 C 1161.816406 466.78125 1163.597656 436.515625 1166.191406 406.023438 Z M 1147.574219 140.359375 C 1166.675781 126.339844 1179.988281 100.078125 1171.050781 75.855469 C 1170.679688 74.964844 1170.273438 74.074219 1169.828125 73.148438 C 1169.753906 92.175781 1156.660156 105.789062 1136.484375 115.398438 C 1138.113281 125.042969 1139.5625 134.910156 1140.785156 144.777344 C 1143.085938 143.441406 1145.347656 141.992188 1147.574219 140.359375 Z M 1179.359375 379.019531 C 1191.003906 370.933594 1189.375 351.90625 1181.214844 341.257812 C 1173.277344 330.945312 1158.292969 335.433594 1147.648438 337.882812 C 1143.34375 338.8125 1139.003906 339.886719 1134.703125 341.035156 C 1139.191406 359.84375 1142.640625 378.835938 1144.273438 397.9375 C 1156.957031 392.707031 1169.046875 386.179688 1179.359375 379.019531 Z M 1197.867188 283.914062 C 1194.9375 255.164062 1182.066406 229.164062 1171.679688 202.640625 C 1172.460938 235.171875 1173.5 267.8125 1173.90625 300.457031 C 1181.511719 294.445312 1189.445312 288.734375 1197.867188 283.914062 Z M 1200.167969 429.207031 C 1200.167969 428.984375 1200.09375 428.835938 1200.09375 428.613281 C 1199.871094 415.113281 1198.089844 401.796875 1195.679688 388.554688 C 1192.453125 391.707031 1188.78125 394.339844 1184.847656 396.714844 C 1182.363281 424.609375 1180.917969 452.464844 1176.207031 479.949219 C 1188.371094 467.042969 1196.011719 450.460938 1200.167969 429.207031 Z M 1205.097656 348.898438 C 1212.109375 344.484375 1209.625 331.429688 1205.804688 324.863281 C 1198.832031 312.695312 1189.929688 314.921875 1181.992188 321.488281 C 1192.710938 327.015625 1201.316406 337.253906 1205.097656 348.898438 Z M 1242.261719 274.75 C 1245.898438 269.667969 1249.273438 263.511719 1242.113281 259.875 C 1236.328125 256.871094 1227.277344 255.089844 1220.863281 256.796875 C 1213.703125 258.726562 1214.335938 268.480469 1215.632812 276.195312 C 1219.117188 275.121094 1222.640625 274.195312 1226.351562 273.675781 C 1231.433594 272.96875 1236.886719 273.414062 1242.261719 274.75 Z M 1226.722656 341.332031 C 1241.816406 332.578125 1255.835938 318.335938 1251.425781 304.609375 C 1244.597656 283.429688 1223.867188 289.734375 1205.765625 300.160156 C 1211.773438 302.609375 1217.117188 307.542969 1221.195312 315.777344 C 1224.792969 323.007812 1227.09375 332.429688 1226.722656 341.332031 Z M 1262.070312 549.871094 C 1278.945312 500.5 1263.144531 455.171875 1217.710938 432.433594 C 1213.035156 458.84375 1204.320312 480.582031 1187.371094 496.828125 C 1194.007812 497.347656 1200.09375 498.347656 1205.246094 500.351562 C 1218.5625 505.136719 1223.71875 512.925781 1222.160156 514.855469 C 1220.417969 517.378906 1213.183594 514.929688 1202.242188 514.523438 C 1191.226562 513.855469 1175.6875 516.003906 1157.734375 519.605469 C 1149.203125 521.308594 1140.859375 522.941406 1133.035156 524.167969 C 1092.902344 534.402344 1051.324219 532.179688 1009.894531 532.105469 C 940.6875 531.957031 850.1875 528.765625 815.769531 458.101562 C 810.316406 478.023438 802.230469 496.976562 790.84375 514.671875 C 793.515625 514.003906 795.925781 513.59375 798.226562 513.371094 C 801.082031 513.371094 803.605469 513.59375 805.71875 513.855469 C 807.683594 514.300781 809.09375 515.003906 810.390625 515.597656 C 812.875 516.785156 814.25 518.230469 814.25 519.605469 C 814.25 521.011719 812.875 522.386719 810.316406 523.609375 C 809.09375 524.167969 807.460938 524.683594 805.792969 525.316406 C 804.382812 526.09375 802.863281 526.875 801.304688 527.542969 C 794.292969 530.953125 788.546875 536.40625 786.429688 546.125 C 785.132812 552.429688 785.542969 559.035156 786.542969 565.042969 C 788.992188 568.195312 791.066406 571.386719 792.773438 574.6875 C 813.691406 601.097656 847.519531 618.496094 881.789062 629.808594 C 879.527344 626.433594 877.636719 622.984375 876.300781 619.644531 C 871.144531 607.253906 871.144531 596.609375 872.070312 589.449219 C 873.296875 582.699219 874.925781 579.285156 876.300781 579.285156 C 877.785156 579.285156 878.785156 583.070312 880.082031 589.523438 C 881.53125 595.460938 883.753906 604.25 889.167969 612.96875 C 894.546875 621.871094 903.855469 630.140625 916.503906 636.375 C 921.289062 638.820312 926.667969 640.824219 932.269531 642.679688 C 933.898438 643.050781 935.605469 643.382812 937.199219 643.679688 C 1000.660156 655.070312 1068.71875 656.550781 1131.847656 641.679688 C 1153.953125 636.449219 1176.835938 629.4375 1197.457031 618.976562 C 1199.535156 616.972656 1201.6875 614.933594 1203.765625 612.855469 C 1220.195312 597.164062 1230.578125 577.0625 1232.175781 563.894531 C 1232.953125 557.363281 1231.246094 551.949219 1229.652344 548.722656 C 1227.648438 544.863281 1225.871094 542.195312 1226.945312 541.042969 C 1227.871094 540.117188 1230.652344 540.117188 1235.105469 542.859375 C 1236.21875 543.714844 1237.515625 544.789062 1238.886719 545.976562 C 1240.039062 547.273438 1241.113281 548.796875 1242.335938 550.503906 C 1243.375 552.207031 1244.117188 554.210938 1245.042969 556.4375 C 1245.75 558.589844 1246.269531 560.960938 1246.675781 563.449219 C 1247.269531 568.902344 1246.75 574.761719 1245.453125 580.695312 C 1252.351562 571.683594 1258.0625 561.519531 1262.070312 549.871094 Z M 1217.117188 412.738281 C 1265.445312 433.695312 1297.042969 478.652344 1285.25 533.402344 C 1276.089844 575.613281 1251.128906 606.882812 1217.488281 628.175781 C 1215.410156 630.140625 1213.332031 632.183594 1211.183594 634.148438 C 1208.25 636.261719 1205.320312 638.375 1202.539062 640.378906 C 1199.683594 642.605469 1196.679688 643.753906 1193.785156 645.351562 C 1190.929688 646.757812 1188.148438 648.207031 1185.21875 649.058594 C 1182.363281 649.914062 1179.542969 650.839844 1176.835938 651.691406 C 1174.054688 652.285156 1171.382812 652.769531 1168.824219 653.289062 C 1163.671875 654.402344 1158.960938 654.402344 1154.582031 654.847656 C 1153.878906 654.847656 1153.246094 654.847656 1152.582031 654.847656 C 1124.09375 662.375 1094.609375 667.160156 1064.863281 669.3125 C 1060.933594 669.941406 1056.777344 670.609375 1052.03125 671.167969 C 1028.441406 673.949219 995.207031 676.25 958.230469 670.164062 C 943.210938 667.570312 928.820312 663.453125 915.949219 657.367188 C 876.300781 647.835938 831.792969 632.8125 799.300781 606.105469 C 799.300781 615.488281 798.300781 625.875 796.855469 637.820312 C 791.699219 679.773438 770.890625 711.449219 735.691406 735.226562 C 653.726562 790.386719 552.617188 810.304688 455.074219 803.925781 C 450.585938 804.222656 445.578125 804.445312 439.941406 804.445312 C 428.109375 804.296875 413.941406 803.628906 398.4375 800.917969 C 390.539062 799.84375 382.453125 797.839844 374.105469 795.761719 C 369.878906 794.761719 365.574219 793.203125 361.199219 791.832031 C 359.789062 791.3125 358.34375 790.90625 356.972656 790.386719 C 341.800781 787.304688 326.707031 783.820312 311.609375 779.960938 C 276.488281 770.875 235.28125 759.488281 209.28125 732.296875 C 155.910156 676.25 172.226562 589.300781 232.757812 548.015625 C 210.429688 525.722656 190.808594 501.132812 176.863281 471.269531 C 176.457031 470.269531 176.011719 469.195312 175.527344 468.191406 C 173.453125 467.339844 171.707031 465.484375 171.152344 462.332031 C 170.707031 459.625 170.152344 456.804688 169.484375 453.949219 C 148.230469 400.164062 142.371094 341.667969 154.757812 284.433594 C 162.84375 246.855469 179.867188 211.507812 183.390625 173.003906 C 185.394531 151.007812 188.25 131.050781 199.339844 111.949219 C 194.890625 88.058594 203.9375 63.984375 224.96875 44.660156 C 241.917969 29.007812 266.804688 24.851562 288.578125 21.550781 C 387.753906 6.9375 498.765625 -0.0742188 599.574219 21.921875 C 603.949219 22.921875 608.4375 23.851562 612.890625 24.777344 C 614.039062 24.480469 615.226562 24.40625 616.597656 24.628906 C 668.710938 32.863281 730.242188 38.464844 770.742188 76.597656 C 795.445312 99.78125 819.402344 137.429688 791.066406 168.179688 C 789.546875 169.851562 787.914062 171.335938 786.285156 172.929688 C 786.617188 173.484375 786.914062 174.152344 787.136719 174.933594 C 791.773438 191.253906 796.59375 208.5 801.230469 226.378906 C 808.09375 224.304688 814.027344 223.746094 819.035156 224.453125 C 822.964844 206.90625 820.925781 188.878906 822.632812 171 C 824.039062 156.089844 829.417969 141.289062 832.570312 126.636719 C 823.1875 102.488281 832.347656 73 858.757812 52.746094 C 870.367188 38.800781 892.101562 29.304688 906.492188 25.1875 C 953.371094 12.09375 1003.183594 10.089844 1051.621094 9.605469 C 1071.207031 9.308594 1090.972656 9.867188 1109.296875 14.316406 C 1110.445312 14.167969 1111.746094 14.316406 1113.003906 14.761719 C 1125.246094 18.917969 1138.113281 24.554688 1149.871094 31.789062 C 1152.433594 31.863281 1155.027344 33.085938 1156.808594 35.871094 C 1157.03125 36.167969 1157.105469 36.351562 1157.328125 36.648438 C 1187.703125 57.976562 1207.175781 90.101562 1181.066406 130.421875 C 1179.359375 133.054688 1177.503906 135.578125 1175.574219 137.914062 C 1175.835938 138.765625 1175.984375 139.65625 1175.984375 140.65625 C 1175.277344 177.863281 1194.007812 210.28125 1206.25 244.554688 C 1209.847656 241.328125 1214.855469 239.179688 1221.789062 238.695312 C 1234.585938 237.84375 1249.496094 240.550781 1258.582031 250.34375 C 1267.371094 259.875 1264.851562 272.820312 1258.359375 282.6875 C 1263.589844 287.066406 1267.445312 292.816406 1268.632812 299.898438 C 1274.308594 332.652344 1240.1875 361.511719 1209.625 367 C 1212.851562 382.171875 1215.707031 397.34375 1217.117188 412.738281 Z M 1002.109375 407.359375 C 1008.191406 408.433594 1012.269531 392.003906 1012.902344 388.332031 C 1013.828125 383.175781 1014.902344 374.867188 1011.824219 369.820312 C 1007.335938 373.863281 1004.890625 384.398438 1003.664062 389.851562 C 1002.738281 393.855469 1001.886719 397.9375 1002.035156 402.09375 C 1002.035156 403.574219 1003.183594 407.359375 1002.109375 407.359375 Z M 928.523438 51.96875 C 920.957031 57.050781 914.503906 62.578125 909.644531 67.992188 C 905.5625 72.589844 902.78125 77.375 902.335938 81.382812 C 901.964844 85.390625 904.042969 88.617188 906.640625 90.839844 C 911.792969 95.144531 916.058594 96.777344 915.652344 97.628906 C 915.355469 98.222656 911.199219 98.484375 903.855469 94.625 C 902.113281 93.550781 900.257812 92.066406 898.554688 89.914062 C 896.957031 87.613281 895.773438 84.609375 895.625 81.308594 C 895.476562 74.667969 898.777344 68.363281 902.96875 62.652344 C 910.015625 53.488281 919.804688 45.03125 931.601562 37.390625 C 916.652344 40.394531 901.039062 44.105469 888.09375 51.820312 C 845.292969 77.300781 894.398438 105.566406 912.648438 110.425781 C 927.519531 114.320312 942.988281 116.101562 958.304688 117.253906 C 996.804688 120.183594 1174.425781 126.5625 1147.277344 56.640625 C 1147.277344 56.640625 1147.277344 56.640625 1147.277344 56.53125 C 1131.921875 38.875 1112.003906 31.640625 1090.75 28.933594 C 1091.269531 29.230469 1091.753906 29.5625 1092.421875 29.933594 C 1095.386719 31.382812 1098.6875 34.71875 1101.507812 37.167969 C 1106.367188 42.953125 1109.445312 49.261719 1110.074219 55.046875 C 1111.003906 60.722656 1110.667969 65.582031 1110 69.363281 C 1108.777344 77.007812 1106.847656 80.828125 1106.144531 80.679688 C 1105.214844 80.53125 1105.550781 76.300781 1105.289062 69.066406 C 1105.070312 62.058594 1103.84375 51.261719 1095.386719 43.175781 C 1092.976562 41.582031 1091.457031 39.617188 1087.820312 38.019531 C 1086.414062 37.316406 1084.1875 36.167969 1083.257812 35.722656 C 1081.589844 35.164062 1079.882812 34.496094 1078.253906 33.941406 C 1074.433594 32.714844 1070.425781 31.789062 1066.273438 31.085938 C 1078.957031 37.242188 1092.273438 47.332031 1090.601562 61.128906 C 1088.898438 76.152344 1077.808594 87.984375 1062.972656 92.066406 C 1039.011719 98.632812 893.027344 108.5 928.523438 51.96875 " fill-opacity="1" fill-rule="nonzero"/><path fill="#fae0ce" d="M 702.535156 109.089844 C 703.609375 113.246094 703.054688 118.328125 700.976562 122.40625 C 699.046875 126.488281 696.042969 129.566406 692.890625 132.125 C 689.8125 134.761719 686.363281 136.726562 682.804688 138.65625 C 680.949219 139.507812 679.875 140.140625 677.5 141.066406 L 672.046875 142.996094 C 664.925781 145.851562 657.621094 147.445312 650.683594 149.300781 C 643.636719 150.597656 636.847656 152.082031 630.359375 152.75 C 617.304688 154.53125 605.582031 154.828125 595.71875 154.753906 C 575.949219 154.457031 564.152344 151.972656 564.152344 150.449219 C 564.152344 148.671875 576.394531 148.078125 595.347656 146.222656 C 604.953125 145.21875 616.300781 144.070312 628.691406 141.769531 C 634.921875 140.84375 641.300781 139.136719 647.9375 137.765625 C 654.464844 135.835938 661.328125 134.277344 667.96875 131.605469 C 675.015625 129.492188 680.726562 126.5625 685.4375 122.890625 C 690.257812 119.253906 692.445312 115.324219 691.667969 111.28125 C 690.964844 107.089844 687.367188 102.5625 683.804688 98.929688 C 680.09375 95.253906 675.941406 92.25 672.121094 89.617188 C 656.46875 79.15625 645.007812 75.226562 645.527344 73.519531 C 645.789062 72.074219 658.472656 73 676.496094 82.234375 C 680.949219 84.683594 685.808594 87.539062 690.519531 91.546875 C 695.117188 95.625 700.382812 100.558594 702.535156 109.089844 " fill-opacity="1" fill-rule="nonzero"/><path fill="#fae0ce" d="M 592.488281 98.222656 C 609.292969 86.6875 558.777344 76.449219 557.773438 76.226562 C 538.117188 71.886719 518.125 68.511719 498.023438 67.214844 C 482.148438 66.136719 464.753906 66.285156 449.210938 69.921875 C 410.492188 79.007812 479.402344 95.402344 489.714844 97.332031 C 515.34375 101.710938 568.53125 114.582031 592.488281 98.222656 Z M 522.871094 51.96875 C 547.539062 54.824219 632.472656 59.050781 612.59375 103.566406 C 596.71875 138.914062 511.820312 119.179688 484.929688 114.582031 C 473.285156 112.394531 387.902344 94.996094 418.800781 64.800781 C 442.871094 41.320312 492.867188 48.480469 522.871094 51.96875 " fill-opacity="1" fill-rule="nonzero"/><path fill="#fae0ce" d="M 538.152344 152.230469 C 537.894531 153.972656 517.792969 152.75 485.152344 150.300781 C 468.90625 149.152344 449.433594 147.445312 427.738281 145.070312 C 416.871094 143.996094 405.78125 141.917969 394.136719 140.289062 C 382.527344 138.507812 370.433594 136.578125 357.972656 134.054688 C 345.621094 131.421875 333.53125 128.34375 322.070312 123.59375 C 316.394531 121.183594 310.832031 118.660156 305.75 115.101562 C 300.519531 111.726562 295.957031 107.71875 292.0625 102.339844 L 289.355469 98 L 287.875 94.328125 L 287.503906 93.402344 L 287.355469 92.917969 L 287.207031 92.695312 L 286.984375 92.140625 L 286.984375 91.992188 L 286.574219 89.617188 L 285.796875 85.09375 C 285.648438 78.859375 287.058594 72.519531 290.359375 67.917969 C 296.738281 58.347656 305.601562 53.601562 313.242188 50.113281 C 329.078125 43.398438 342.691406 41.65625 351.964844 41.320312 C 361.496094 40.878906 366.503906 42.398438 366.429688 43.101562 C 366.355469 44.03125 361.199219 44.179688 352.558594 45.957031 C 343.804688 47.664062 330.859375 50.667969 316.988281 57.792969 C 310.199219 61.351562 302.894531 66.210938 298.964844 73.074219 C 296.664062 76.449219 296.292969 80.308594 296.367188 84.238281 C 297.035156 86.09375 296.960938 88.542969 297.960938 90.101562 L 299.519531 93.699219 C 300.148438 94.476562 300.742188 95.253906 301.300781 96.070312 C 306.453125 103.15625 316.285156 108.5 326.519531 112.652344 C 336.941406 116.734375 348.476562 119.664062 360.496094 122.1875 C 372.511719 124.597656 384.453125 126.675781 396.0625 128.601562 C 407.636719 130.421875 418.800781 132.757812 429.480469 134.054688 C 450.808594 136.984375 469.984375 139.582031 486.078125 141.769531 C 518.347656 146.445312 538.152344 150.597656 538.152344 152.230469 " fill-opacity="1" fill-rule="nonzero"/></svg>